<svg width="197" height="228" viewBox="0 0 197 228" fill="none" xmlns="http://www.w3.org/2000/svg">
<path d="M98.5917 202.986C98.5917 210.931 98.5917 218.921 98.5917 227.218C97.8026 226.823 97.145 226.559 96.5751 226.208C71.982 211.985 47.4327 197.806 22.8396 183.583C15.8693 179.544 8.94293 175.505 1.97268 171.555C0.745219 170.852 0.263 170.106 0.263 168.657C0.306839 132.09 0.306839 95.4788 0.263 58.9115C0.263 57.4629 0.745219 56.7166 1.97268 56.0142C33.6237 37.7526 65.2748 19.447 96.9259 1.09747C97.978 0.482894 98.7671 0.438995 99.863 1.09747C129.147 18.0861 158.474 35.0309 187.802 51.9756C190.257 53.3804 192.712 54.829 195.211 56.2337C196.044 56.7166 196.526 57.1995 196.526 58.2531C196.482 68.218 196.482 78.139 196.482 88.1039C196.482 88.3234 196.394 88.499 196.307 88.8502C189.424 88.8502 182.542 88.8502 175.396 88.8502C175.396 87.4893 175.396 86.2163 175.396 84.8993C175.396 80.3778 175.352 75.8124 175.44 71.2909C175.484 69.7983 175.001 68.9642 173.686 68.218C157.159 58.7359 140.676 49.1661 124.193 39.6402C116.171 34.987 108.148 30.3776 100.126 25.6805C98.8986 24.9342 98.0218 24.9342 96.7505 25.6805C72.2012 39.9475 47.6081 54.1266 23.0149 68.3058C21.8751 68.9643 21.3929 69.7105 21.3929 71.0275C21.4368 99.4736 21.4368 127.964 21.3929 156.41C21.3929 157.902 21.9628 158.561 23.1465 159.263C48.1341 173.662 73.078 188.104 98.0218 202.503C98.1972 202.678 98.3725 202.854 98.5917 202.986Z" fill="#E59725"/>
<path d="M175.396 158.297C175.396 148.684 175.396 139.07 175.396 129.324C182.41 129.324 189.249 129.324 196.263 129.324C196.307 129.983 196.394 130.597 196.394 131.212C196.394 143.723 196.394 156.234 196.438 168.745C196.438 170.062 196.087 170.852 194.904 171.511C169.609 186.085 144.359 200.703 119.108 215.277C118.363 215.716 117.617 216.067 116.697 216.594C116.609 215.98 116.565 215.628 116.565 215.277C116.565 208.122 116.609 200.923 116.521 193.767C116.521 192.318 117.311 191.879 118.275 191.309C129.98 184.548 141.641 177.788 153.345 171.072C160.622 166.857 167.943 162.599 175.396 158.297Z" fill="#606061"/>
<path d="M196.351 103.556C196.351 110.492 196.351 117.208 196.351 124.057C189.424 124.057 182.542 124.057 175.527 124.057C175.527 117.296 175.527 110.448 175.527 103.556C182.454 103.556 189.293 103.556 196.351 103.556Z" fill="#606061"/>
</svg>
