<svg xmlns="http://www.w3.org/2000/svg" version="1.1" xmlns:xlink="http://www.w3.org/1999/xlink" width="512" height="512" x="0" y="0" viewBox="0 0 62 62" style="enable-background:new 0 0 512 512" xml:space="preserve" class=""><g><path fill="#d18922" d="M1.593 16.225A2.986 2.986 0 0 1 4 15h1v-.232a4 4 0 0 1 3.761-3.993l3.167-.189a3.645 3.645 0 0 1 2.741 2.419L15 14a3.618 3.618 0 0 0 2-3.236v-.289A4.431 4.431 0 0 0 21 13v2h1c1.084 0 2.025.58 2.552 1.442l.179-.339A11.016 11.016 0 0 0 26 10.979a7.094 7.094 0 0 0-5.337-6.856A8.184 8.184 0 0 0 13.528 0h-2.904C4.766 0 0 4.766 0 10.624c0 1.894.508 3.758 1.47 5.391zM49 0c-7.168 0-13 5.832-13 13v5.765c0 2.343 1.663 4.4 3.955 4.89l1.514.324.776.001A6.96 6.96 0 0 1 41 20v-5a4 4 0 0 1 4-4l3.003.001A4.991 4.991 0 0 0 52 13h2a3 3 0 0 1 3 3v4a6.966 6.966 0 0 1-1.259 3.999l.687.001 1.617-.346A5.025 5.025 0 0 0 62 18.764V13c0-7.168-5.832-13-13-13zM58.525 36.111l-2.397-2.398-.683.455A10.878 10.878 0 0 1 49.395 36H46c-5.514 0-10 4.486-10 10 0 1.481.338 2.973.977 4.311l.255.534A3 3 0 0 1 40 49h1a4 4 0 0 1 4-4 2 2 0 0 0 2 2h8a2 2 0 0 1 2 2h1c1.032 0 1.942.522 2.482 1.316l.151-.287A11.923 11.923 0 0 0 62 44.5c0-3.169-1.234-6.148-3.475-8.389zM29.553 54.869A14.771 14.771 0 0 1 28 48.292V47c0-7.168-5.832-13-13-13S2 39.832 2 47v1.292c0 2.272-.537 4.547-1.553 6.577A4.24 4.24 0 0 0 4.236 61H14a7 7 0 0 1-7-7v-5a2 2 0 0 1 2-2h3l2-3 2 3h5a2 2 0 0 1 2 2v5a7 7 0 0 1-7 7h9.764a4.24 4.24 0 0 0 3.789-6.131z" opacity="1" data-original="#f0bc5e"></path><path d="M13 24a5.017 5.017 0 0 0 4.33-2.5l-1.73-1c-.536.925-1.532 1.5-2.6 1.5s-2.064-.575-2.6-1.5l-1.73 1A5.017 5.017 0 0 0 13 24zM49 56a3.016 3.016 0 0 1-2.6-1.501l-1.73 1.002C45.562 57.042 47.221 58 49 58s3.438-.958 4.33-2.499l-1.73-1.002A3.016 3.016 0 0 1 49 56zM49 24a5.017 5.017 0 0 0 4.33-2.5l-1.73-1c-.536.925-1.532 1.5-2.6 1.5s-2.064-.575-2.6-1.5l-1.73 1A5.017 5.017 0 0 0 49 24zM15 56a3.016 3.016 0 0 1-2.6-1.501l-1.73 1.002C11.562 57.042 13.221 58 15 58s3.438-.958 4.33-2.499l-1.73-1.002A3.016 3.016 0 0 1 15 56zM32.208 39.036l2.181-3.026h3.373a3.739 3.739 0 0 0 3.657-3l.509-2.549A3.734 3.734 0 0 0 38.271 26H23.729a3.733 3.733 0 0 0-3.657 4.461l.509 2.541A3.739 3.739 0 0 0 24.238 36H28v1.677a2.326 2.326 0 0 0 4.208 1.359zM30 37.677V34h-5.762a1.734 1.734 0 0 1-1.696-1.391l-.509-2.54A1.73 1.73 0 0 1 23.729 28H38.27a1.731 1.731 0 0 1 1.697 2.069l-.509 2.549a1.734 1.734 0 0 1-1.696 1.392h-4.396l-2.779 3.855c-.167.232-.588.094-.587-.188z" fill="#2c2b4b" opacity="1" data-original="#000000" class=""></path><path d="M24 30h2v2h-2zM36 30h2v2h-2zM28 30h2v2h-2zM32 30h2v2h-2zM48 28h2c1.705 0 3.283-.54 4.583-1.453.274 1.465.417 2.956.417 4.453a24.22 24.22 0 0 1-.292 3.617c.251-.14.497-.288.738-.449l.683-.455.63.63C56.903 33.221 57 32.1 57 31c0-2.045-.25-4.078-.723-6.057A7.947 7.947 0 0 0 58 20v-4c0-2.206-1.794-4-4-4h-2c-2.206 0-4-1.794-4-4h-2c0 .701.121 1.374.343 2H45c-2.757 0-5 2.243-5 5v5c0 4.411 3.589 8 8 8zm-6-13c0-1.654 1.346-3 3-3h2.531c1.1 1.227 2.695 2 4.469 2h2c1.103 0 2 .897 2 2v4c0 3.309-2.691 6-6 6h-2c-3.309 0-6-2.691-6-6zM58 48h-.184A2.996 2.996 0 0 0 55 46h-8a1 1 0 0 1 0-2h1v-2h-1a3.006 3.006 0 0 0-2.854 2.073A5.01 5.01 0 0 0 40.108 48H40c-2.206 0-4 1.794-4 4 0 .858.277 1.649.738 2.301A23.914 23.914 0 0 1 31 55c-.448 0-.921-.021-1.413-.051.268.565.413 1.189.413 1.815 0 .073-.018.141-.021.212.349.015.689.024 1.021.024 2.649 0 5.267-.413 7.792-1.207.384.123.784.207 1.208.207h.263c.892 3.445 4.017 6 7.737 6h2c3.719 0 6.845-2.555 7.737-6H58c2.206 0 4-1.794 4-4s-1.794-4-4-4zm-20 4c0-1.103.897-2 2-2v4c-1.103 0-2-.897-2-2zm18 2c0 3.309-2.691 6-6 6h-2c-3.309 0-6-2.691-6-6v-5c0-1.381.938-2.548 2.211-2.895A3.005 3.005 0 0 0 47 48h8a1 1 0 0 1 1 1zm2 0v-4c1.103 0 2 .897 2 2s-.897 2-2 2zM37.093 7.799c.276-.63.605-1.232.974-1.806a26.242 26.242 0 0 0-14.152.002c.508.51.942 1.088 1.276 1.728a24.244 24.244 0 0 1 11.902.076zM7 31c0-1.497.143-2.988.417-4.453A7.946 7.946 0 0 0 12 28h2c3.719 0 6.845-2.555 7.737-6H22c2.206 0 4-1.794 4-4s-1.794-4-4-4v-2h-1a3.416 3.416 0 0 1-3.186-2.157l-.886-2.214-1.857.743.886 2.214c.013.031.03.059.043.09v.088c0 .58-.188 1.125-.519 1.568a4.656 4.656 0 0 0-3.357-2.727A2.649 2.649 0 0 1 10 7.015V5H8v2.015c0 1.021.347 1.971.923 2.749l-.222.013c-2.375.142-4.27 1.939-4.626 4.223H4c-2.206 0-4 1.794-4 4s1.794 4 4 4h.263a7.98 7.98 0 0 0 1.459 2.943A26.119 26.119 0 0 0 5 31c0 2.272.313 4.531.902 6.73a13.142 13.142 0 0 1 1.703-1.408A24.024 24.024 0 0 1 7 31zM2 18c0-1.103.897-2 2-2v4c-1.103 0-2-.897-2-2zm22 0c0 1.103-.897 2-2 2v-4c1.103 0 2 .897 2 2zM6 14.768c0-1.584 1.239-2.9 2.82-2.995l2.993-.179a2.644 2.644 0 0 1 1.907 1.727l.696 2.089 1.031-.516a4.595 4.595 0 0 0 2.095-2.133A5.384 5.384 0 0 0 20 13.908V20c0 3.309-2.691 6-6 6h-2c-3.309 0-6-2.691-6-6zM21 46h-4.465l-1.703-2.555c-.371-.557-1.293-.557-1.664 0L11.465 46H9c-1.654 0-3 1.346-3 3v5c0 4.411 3.589 8 8 8h2c4.411 0 8-3.589 8-8v-5c0-1.654-1.346-3-3-3zm1 8c0 3.309-2.691 6-6 6h-2c-3.309 0-6-2.691-6-6v-5a1 1 0 0 1 1-1h3c.334 0 .646-.167.832-.445L14 45.803l1.168 1.752c.186.278.498.445.832.445h5a1 1 0 0 1 1 1z" fill="#2c2b4b" opacity="1" data-original="#000000" class=""></path></g></svg>