<svg width="100" height="100" viewBox="0 0 100 100" fill="none" xmlns="http://www.w3.org/2000/svg">
<g clip-path="url(#clip0_614_373)">
<path d="M58.0646 0H30.1743C20.6517 0 12.9033 7.74839 12.9033 17.271C12.9033 19.9371 13.534 22.6081 14.7259 24.9952L16.1549 27.8532C16.6367 27.5718 17.1841 27.4221 17.742 27.4194H20.9678V22.6306C20.9678 20.6516 22.1727 18.8726 24.0098 18.1387L28.1114 16.4984L28.1146 16.4968C28.7049 17.2484 29.613 17.7419 30.6453 17.7419H50.0001C50.4237 17.7419 50.8432 17.8254 51.2346 17.9875C51.6259 18.1496 51.9815 18.3872 52.2811 18.6868C52.5806 18.9863 52.8182 19.3419 52.9804 19.7333C53.1425 20.1247 53.2259 20.5441 53.2259 20.9677V27.4194H56.4517C57.0388 27.4194 57.5823 27.5887 58.0565 27.8629C59.7861 25.1391 60.8579 22.05 61.1872 18.8403C63.0969 18.1842 64.7546 16.9491 65.9294 15.3067C67.1043 13.6644 67.7379 11.6967 67.742 9.67742C67.742 4.34032 63.4017 0 58.0646 0Z" fill="#E59623"/>
<path d="M35.4016 26.3161L32.3419 25.2952C31.98 26.3837 31.2844 27.3306 30.3538 28.0014C29.4233 28.6722 28.3051 29.0329 27.158 29.0323H25.8064V32.2581H27.158C28.9822 32.2596 30.7605 31.6864 32.2403 30.6197C33.7202 29.553 34.8263 28.0472 35.4016 26.3161ZM47.0354 32.2581H48.387V29.0323H47.0354C45.8887 29.0332 44.7708 28.6727 43.8405 28.0022C42.9102 27.3316 42.2149 26.385 41.8532 25.2968L38.7935 26.3177C39.3688 28.0484 40.4747 29.5538 41.9542 30.6202C43.4338 31.6866 45.2117 32.2596 47.0354 32.2581ZM41.4628 40.5177L42.408 41.4629L44.6887 39.1823L43.7435 38.2371C41.9693 36.4613 39.608 35.4839 37.0967 35.4839C34.5854 35.4839 32.2241 36.4613 30.4499 38.2371L29.5048 39.1823L31.7854 41.4629L32.7306 40.5177C35.0628 38.1855 39.1306 38.1855 41.4628 40.5177Z" fill="#2C2B4B"/>
<path d="M79.0323 41.9356C77.3645 41.9356 75.75 42.1517 74.1936 42.5211V14.5162C74.1936 11.8485 72.0226 9.67751 69.3548 9.67751H67.7419C67.7419 10.8033 67.5323 11.8872 67.1694 12.9033H69.3548C70.2435 12.9033 70.9677 13.6275 70.9677 14.5162V43.5533C63.3984 46.7195 58.0645 54.1985 58.0645 62.9033C58.0645 65.7598 58.6435 68.484 59.6823 70.9678H56.3323L55.5855 61.2711C55.3607 58.2873 54.1932 55.4522 52.2516 53.1754C50.3099 50.8986 47.6948 49.298 44.7839 48.6049L44.2113 46.8872C46.6037 45.8327 48.7345 44.2643 50.4525 42.2935C52.1704 40.3227 53.4334 37.9978 54.1516 35.484H56.4516C59.1194 35.484 61.2903 33.313 61.2903 30.6453C61.2903 27.9775 59.1194 25.8065 56.4516 25.8065H54.8387V20.9678C54.8387 18.3001 52.6677 16.1291 50 16.1291H30.6452C29.7565 16.1291 29.0323 15.4049 29.0323 14.5162C29.0323 13.6275 29.7565 12.9033 30.6452 12.9033H30.921C31.3516 12.9033 31.7581 13.0711 32.0629 13.3759L32.7306 14.0436L35.0113 11.763L34.3435 11.0953C33.8953 10.6441 33.362 10.2865 32.7744 10.0431C32.1869 9.79977 31.5569 9.67549 30.921 9.67751H30.6452C29.9153 9.67858 29.1951 9.84453 28.5383 10.163C27.8816 10.4814 27.3052 10.9441 26.8524 11.5166C26.3995 12.089 26.0819 12.7563 25.9231 13.4687C25.7643 14.1811 25.7686 14.9202 25.9355 15.6307L23.4097 16.6404C22.2102 17.1159 21.1817 17.9417 20.4584 19.0103C19.7352 20.0788 19.3506 21.3404 19.3548 22.6307V25.8065H17.7419C15.0742 25.8065 12.9032 27.9775 12.9032 30.6453C12.9032 33.313 15.0742 35.484 17.7419 35.484H20.0419C20.7599 37.998 22.0227 40.323 23.7407 42.2939C25.4587 44.2647 27.5897 45.833 29.9823 46.8872L29.4097 48.6049C26.4987 49.2978 23.8834 50.8983 21.9417 53.1751C20 55.4519 18.8326 58.2872 18.6081 61.2711L17.8613 70.9678H4.83871C3.95 70.9678 3.22581 70.2436 3.22581 69.3549V17.742C3.22581 16.8533 3.95 16.1291 4.83871 16.1291H12.9613C13.0339 15.0211 13.2113 13.9453 13.4839 12.9033H4.83871C2.17097 12.9033 0 15.0743 0 17.742V69.3549C0 72.0227 2.17097 74.1936 4.83871 74.1936H32.6113L33.5274 77.8582C33.9387 79.5001 35.4065 80.6453 37.0968 80.6453C38.7871 80.6453 40.2548 79.5001 40.6661 77.8582L41.5823 74.1936H61.3919C65.1242 80.0033 71.629 83.8711 79.0323 83.8711C90.5936 83.8711 100 74.4646 100 62.9033C100 51.342 90.5936 41.9356 79.0323 41.9356ZM52.3694 61.5194L53.0968 70.9678H48.3871V63.5711C48.3871 62.5469 48.8032 61.542 49.5274 60.8178L47.2468 58.5372C46.5834 59.1965 46.0574 59.981 45.6994 60.8451C45.3414 61.7092 45.1585 62.6357 45.1613 63.5711V70.9678H41.6887L40.3548 62.9695L41.2161 59.5243L42.4468 60.3453L46.9145 52.9001C48.4592 53.7812 49.7643 55.0278 50.7153 56.5305C51.6663 58.0332 52.2342 59.7462 52.3694 61.5194ZM30.4532 51.7082L35.2726 54.1178L32.771 55.7856L30.3419 51.7372C30.379 51.7275 30.4145 51.7162 30.4532 51.7082ZM43.7403 51.7082L43.8516 51.7372L41.4226 55.7856L38.921 54.1178L43.7403 51.7082ZM36.7435 61.2904L35.8274 57.6243L37.0968 56.7775L38.3677 57.6243L37.45 61.2904H36.7435ZM56.4516 29.0324C57.3403 29.0324 58.0645 29.7565 58.0645 30.6453C58.0645 31.534 57.3403 32.2582 56.4516 32.2582H54.7565C54.8048 31.7259 54.8387 31.1904 54.8387 30.6453V29.0324H56.4516ZM17.7419 32.2582C16.8532 32.2582 16.129 31.534 16.129 30.6453C16.129 29.7565 16.8532 29.0324 17.7419 29.0324H19.3548V30.6453C19.3548 31.1904 19.3887 31.7259 19.4371 32.2582H17.7419ZM22.5806 30.6453V22.6307C22.5784 21.9856 22.7707 21.3547 23.1323 20.8204C23.494 20.2861 24.0082 19.8732 24.6081 19.6356L27.7403 18.3824C28.5766 19.0148 29.5967 19.3564 30.6452 19.3549H50C50.8887 19.3549 51.6129 20.0791 51.6129 20.9678V30.6453C51.6129 38.6485 45.1 45.1614 37.0968 45.1614C29.0935 45.1614 22.5806 38.6485 22.5806 30.6453ZM37.0968 48.3872C38.4935 48.3872 39.8452 48.2082 41.1484 47.9017L41.5758 49.1824L37.0968 51.4227L32.6177 49.1824L33.0452 47.9017C34.3484 48.2082 35.7 48.3872 37.0968 48.3872ZM21.8242 61.5194C21.9597 59.7463 22.5278 58.0335 23.4788 56.5308C24.4298 55.0282 25.7346 53.7816 27.279 52.9001L31.7468 60.3453L32.9774 59.5243L33.8387 62.9695L32.5048 70.9678H29.0323V63.5711C29.035 62.6357 28.8521 61.7092 28.4941 60.8451C28.1361 59.981 27.6102 59.1965 26.9468 58.5372L24.6661 60.8178C25.3903 61.542 25.8065 62.5469 25.8065 63.5711V70.9678H21.0968L21.8242 61.5194ZM36.6581 77.0759L35.5177 72.5146L36.85 64.5162H37.3435L38.6774 72.5146L37.5371 77.0759C37.4355 77.4807 36.7581 77.4807 36.6581 77.0759ZM79.0323 80.6453C69.25 80.6453 61.2903 72.6856 61.2903 62.9033C61.2903 53.1211 69.25 45.1614 79.0323 45.1614C88.8145 45.1614 96.7742 53.1211 96.7742 62.9033C96.7742 72.6856 88.8145 80.6453 79.0323 80.6453Z" fill="#2C2B4B"/>
<path d="M79.0322 67.742C76.3645 67.742 74.1935 69.913 74.1935 72.5808C74.1935 75.2485 76.3645 77.4195 79.0322 77.4195C81.7 77.4195 83.871 75.2485 83.871 72.5808C83.871 69.913 81.7 67.742 79.0322 67.742ZM79.0322 74.1937C78.1435 74.1937 77.4193 73.4695 77.4193 72.5808C77.4193 71.692 78.1435 70.9678 79.0322 70.9678C79.921 70.9678 80.6452 71.692 80.6452 72.5808C80.6452 73.4695 79.921 74.1937 79.0322 74.1937ZM80.6452 48.3872H77.4193C75.6403 48.3872 74.1935 49.834 74.1935 51.613V61.2904C74.1935 63.0695 75.6403 64.5162 77.4193 64.5162H80.6452C82.4242 64.5162 83.871 63.0695 83.871 61.2904V51.613C83.871 49.834 82.4242 48.3872 80.6452 48.3872ZM77.4193 61.2904V51.613H80.6452L80.6468 61.2904H77.4193ZM66.1758 88.4695L59.2774 84.3308C58.7758 84.0305 58.2023 83.8716 57.6177 83.8711H8.06452C3.61774 83.8711 0 87.4888 0 91.9356C0 96.3824 3.61774 100 8.06452 100H57.6177C58.2016 100 58.7758 99.8404 59.2774 99.5404L66.1774 95.4017C66.8742 94.9824 67.3693 94.3114 67.5984 93.5501H74.1935V90.3243H67.5968C67.3708 89.5505 66.8641 88.889 66.1758 88.4695ZM19.3548 93.5485V96.7743H12.9032V93.5485H19.3548ZM12.9032 90.3227V87.0969H19.3548V90.3227H12.9032ZM22.5806 93.5485H29.0323V90.3227H22.5806V87.0969H56.4516V96.7743H22.5806V93.5485ZM3.22581 91.9356C3.22581 89.2678 5.39677 87.0969 8.06452 87.0969H9.67742V90.3227H6.45161V93.5485H9.67742V96.7743H8.06452C5.39677 96.7743 3.22581 94.6033 3.22581 91.9356ZM64.5161 92.6356L59.6774 95.5388V88.334L64.5161 91.2372V92.6356Z" fill="#2C2B4B"/>
</g>
<defs>
<clipPath id="clip0_614_373">
<rect width="100" height="100" fill="white"/>
</clipPath>
</defs>
</svg>
