<svg width="98" height="98" viewBox="0 0 98 98" fill="none" xmlns="http://www.w3.org/2000/svg">
<path d="M39.0281 91.1874H33.9719L31.9766 87.1984L34.7734 85.8015L35.9031 88.0624H37.0969L38.2266 85.8015L41.0234 87.1984L39.0281 91.1874Z" fill="#2C2B4B"/>
<path d="M31.9141 95.3172L33.425 89.2829L36.4562 90.0422L34.9453 96.0766L31.9141 95.3172ZM36.5828 89.9735L39.6141 89.2141L41.1266 95.25L38.0953 96.0094L36.5828 89.9735Z" fill="#2C2B4B"/>
<path d="M74 61.5C65.3703 61.5 58.375 54.5047 58.375 45.875C58.375 37.2453 65.3703 30.25 74 30.25C74.6844 30.25 75.3531 30.3094 76.0141 30.3937C70.0953 21.8172 60.2094 16.1875 49 16.1875C47.9219 16.1875 46.8563 16.2469 45.8047 16.3484C45.8453 16.8109 45.875 17.2766 45.875 17.75C45.875 26.3797 38.8797 33.375 30.25 33.375C27.2089 33.3778 24.2339 32.4879 21.6938 30.8156C18.0965 36.1973 16.1799 42.5268 16.1875 49C16.1875 53.3937 17.0656 57.5766 18.6328 61.4062C22.5922 55.7984 29.1125 52.125 36.5 52.125C48.5813 52.125 58.375 61.9188 58.375 74C58.375 76.3406 57.9985 78.5922 57.3172 80.7078C62.4089 79.3687 67.1038 76.8244 71.0057 73.2897C74.9075 69.755 77.9019 65.3335 79.736 60.3984C77.9108 61.1247 75.9644 61.4985 74 61.5Z" fill="#E59623"/>
<path d="M87.9906 55.8219C94.3266 53.9891 97.4375 51.7578 97.4375 49C97.4375 46.7031 95.2922 44.7891 90.95 43.1516C90.5958 40.9321 89.8056 38.8047 88.625 36.8922C94.5438 35.0969 97.4375 32.9156 97.4375 30.25C97.4375 26.125 90.3031 23.0312 76.2531 21.0469C69.0656 14.0687 59.3125 9.9375 49 9.9375C47.8734 9.9375 46.7422 10.0016 45.6172 10.0984C42.7969 4.45625 36.9766 0.5625 30.25 0.5625C20.7734 0.5625 13.0625 8.27344 13.0625 17.75C13.0625 19.3891 13.3078 20.9688 13.7375 22.4719C4.87813 24.4406 0.5625 26.9906 0.5625 30.25C0.5625 33.5234 5.10156 35.8844 11.6469 37.5563C11.2067 39.0175 10.853 40.5034 10.5875 42.0062C3.85 43.8672 0.5625 46.1578 0.5625 49C0.5625 51.8328 3.93594 54.175 10.575 56.0063C10.85 57.5141 11.2156 59.0031 11.6641 60.4672C4.2 62.3719 0.5625 64.7609 0.5625 67.75C0.5625 70.9297 4.68594 73.4328 13.1328 75.3875C13.8562 87.6641 24.0453 97.4375 36.5 97.4375C44.4062 97.4375 51.3953 93.4922 55.6422 87.4781C63.4377 86.1416 70.6419 82.4641 76.2969 76.9344C86.6937 75.4844 97.4375 72.7734 97.4375 67.75C97.4375 64.7594 93.7969 62.3703 86.325 60.4641C86.6953 59.2594 87.0203 58.0344 87.2734 56.7828C87.5266 56.4734 87.7578 56.1484 87.9906 55.8219ZM91.15 46.6031C93.575 47.6891 94.3125 48.6078 94.3125 49C94.3125 49.4 93.4609 50.5297 90.1 51.8359C90.7094 50.1937 91.0734 48.4375 91.15 46.6031ZM94.3125 30.25C94.3125 30.7797 92.8875 32.4828 86.6016 34.225C85.8702 33.4358 85.0673 32.716 84.2031 32.075C82.9423 29.4636 81.3925 27.0018 79.5828 24.7359C91.4547 26.8063 94.3125 29.4172 94.3125 30.25ZM46.7891 13.1328C47.5266 13.0891 48.2641 13.0625 49 13.0625C61.2313 13.0625 72.6047 19.3797 79.1687 29.4844C77.4968 28.9557 75.7535 28.687 74 28.6875C67.4219 28.6875 61.7031 32.4047 58.8141 37.8453C55.6047 37.9844 52.3141 38.0625 49 38.0625C34.6219 38.0625 23.4594 36.8203 15.8047 35.2422C16.5362 33.4861 17.4067 31.7911 18.4078 30.1734C21.5913 33.232 25.8353 34.9393 30.25 34.9375C39.7266 34.9375 47.4375 27.2266 47.4375 17.75C47.4375 16.1484 47.2016 14.6047 46.7891 13.1328ZM30.25 19.3125C27.6656 19.3125 25.5625 17.2094 25.5625 14.625C25.5625 12.0406 27.6656 9.9375 30.25 9.9375C32.8344 9.9375 34.9375 12.0406 34.9375 14.625C34.9375 17.2094 32.8344 19.3125 30.25 19.3125ZM31.8531 22.6062L30.25 24.6187L28.6469 22.6062C29.7039 22.3824 30.7961 22.3824 31.8531 22.6062ZM25.7016 23.925L30.25 29.6313L34.7984 23.925C35.6937 24.5717 36.4409 25.4017 36.9902 26.3598C37.5396 27.3178 37.8785 28.3819 37.9844 29.4812C35.7641 30.9516 33.1063 31.8125 30.25 31.8125C27.3937 31.8125 24.7359 30.9516 22.5156 29.4812C22.6215 28.3819 22.9604 27.3178 23.5098 26.3598C24.0591 25.4017 24.8063 24.5717 25.7016 23.925ZM30.25 3.6875C38.0031 3.6875 44.3125 9.99687 44.3125 17.75C44.3111 21.204 43.0322 24.5355 40.7219 27.1031C40.2976 25.7038 39.598 24.4033 38.6643 23.278C37.7305 22.1527 36.5814 21.2252 35.2844 20.55C36.9688 19.1156 38.0625 17.0063 38.0625 14.625C38.0625 10.3172 34.5578 6.8125 30.25 6.8125C25.9422 6.8125 22.4375 10.3172 22.4375 14.625C22.4375 17.0063 23.5312 19.1156 25.2172 20.55C23.9201 21.2252 22.771 22.1527 21.8373 23.278C20.9035 24.4033 20.204 25.7038 19.7797 27.1031C17.4682 24.5361 16.1886 21.2044 16.1875 17.75C16.1875 9.99687 22.4969 3.6875 30.25 3.6875ZM3.6875 30.25C3.6875 29.5594 5.75625 27.4 14.8922 25.4219C15.2937 26.2219 15.7625 26.9828 16.2781 27.7062C14.8617 29.8601 13.6631 32.1495 12.7 34.5406C6.76719 33.0594 3.6875 31.4125 3.6875 30.25ZM49 41.1875C51.8734 41.1875 54.7187 41.1203 57.5219 41.0187C57.0535 42.5951 56.8146 44.2306 56.8125 45.875C56.8125 49.8875 58.2063 53.5766 60.5203 56.5047C57.8406 56.6406 55.1187 56.7422 52.3469 56.7828C48.1703 52.9344 42.6141 50.5625 36.5 50.5625C31.4947 50.5641 26.6232 52.1788 22.6078 55.1672C18.85 54.6484 15.8094 54.0703 13.3453 53.4813C12.7019 48.3687 13.1617 43.1777 14.6937 38.2578C25.2859 40.4562 39.5281 41.1875 49 41.1875ZM33.5953 79.5609L33.8422 78.5766C34.2031 78.6281 34.5625 78.6875 34.9375 78.6875H38.0625C38.4375 78.6875 38.7969 78.6281 39.1578 78.5766L39.4047 79.5609L36.5 81.4969L33.5953 79.5609ZM34.0484 83.6172L32.1234 85.5422L30.1469 82.25C30.5828 82.1078 31.0344 82.0031 31.4937 81.9156L34.0484 83.6172ZM41.5063 81.9156C41.9641 82.0047 42.4156 82.1094 42.8516 82.25L40.8766 85.5422L38.9516 83.6172L41.5063 81.9156ZM38.0625 75.5625H34.9375C32.3531 75.5625 30.25 73.4594 30.25 70.875V66.4078C30.25 64.8375 31.0312 63.3797 32.3375 62.5078L33.0078 62.0609C35.2228 64.7513 38.3026 66.5897 41.7219 67.2625C42.0117 67.3215 42.2723 67.4787 42.4596 67.7076C42.6469 67.9365 42.7495 68.223 42.75 68.5188V70.875C42.75 73.4594 40.6469 75.5625 38.0625 75.5625ZM42.3312 64.1984C40.7796 63.8923 39.304 63.2816 37.9899 62.4017C36.6757 61.5217 35.549 60.39 34.675 59.0719L33.8078 57.7719L30.6031 59.9078C29.5322 60.6203 28.6542 61.5867 28.0473 62.7208C27.4405 63.8549 27.1236 65.1215 27.125 66.4078V68.1562C26.7002 67.4726 26.3557 66.7423 26.0984 65.9797C25.7427 64.9142 25.5617 63.7983 25.5625 62.675V61.5C25.5625 59.8203 26.1172 58.1547 27.125 56.8125C27.576 56.217 28.1101 55.6892 28.7109 55.2453C31.1786 54.2157 33.8261 53.6862 36.5 53.6875C39.2578 53.6875 41.8875 54.2453 44.2875 55.2453C44.8875 55.6922 45.425 56.2125 45.875 56.8125C46.8828 58.1547 47.4375 59.8203 47.4375 61.5V62.675C47.4373 64.6308 46.8867 66.5471 45.8484 68.2047C45.7798 67.2445 45.3989 66.3332 44.7639 65.6098C44.1288 64.8865 43.2744 64.3908 42.3312 64.1984ZM3.6875 49C3.6875 48.5078 4.91406 47.0047 10.1203 45.3969C10.0109 46.5906 9.9375 47.7891 9.9375 49C9.9375 50.2062 10.0125 51.4094 10.1234 52.6062C5.125 51.0656 3.6875 49.5938 3.6875 49ZM19.5359 57.8734C18.1001 59.3882 16.8702 61.0856 15.8781 62.9219C15.0525 60.9528 14.4041 58.914 13.9406 56.8297C15.65 57.2031 17.5031 57.5531 19.5359 57.8734ZM3.6875 67.75C3.6875 67.1531 5.35625 65.2734 12.7047 63.4281C13.1578 64.5703 13.6672 65.6875 14.2266 66.7797C13.6545 68.531 13.2936 70.3444 13.1516 72.1812C5.45 70.3094 3.6875 68.3766 3.6875 67.75ZM16.1875 74C16.1875 68.1094 18.7219 62.8141 22.7406 59.1C22.5509 59.8863 22.4492 60.6912 22.4375 61.5V62.675C22.4375 64.1375 22.6719 65.5813 23.1344 66.9672C23.8385 69.0723 25.0458 70.9737 26.6516 72.5062L27.5766 73.3875C28.1642 75.1083 29.3341 76.57 30.8844 77.5203L30.5422 78.8922C28.4102 79.3599 26.4146 80.3123 24.7099 81.6755C23.0053 83.0387 21.6375 84.7761 20.7125 86.7531C17.783 83.1486 16.185 78.6448 16.1875 74ZM36.5 94.3125C31.3547 94.3125 26.6641 92.3734 23.0812 89.2094C23.8558 86.9377 25.3452 84.978 27.3266 83.6234L31.5031 90.5828L36.5 85.5844L41.4984 90.5828L45.6734 83.6219C47.6548 84.9764 49.1442 86.9361 49.9188 89.2078C46.3359 92.3734 41.6453 94.3125 36.5 94.3125ZM52.2875 86.7531C51.3623 84.7763 49.9944 83.039 48.2898 81.6758C46.5852 80.3126 44.5897 79.3601 42.4578 78.8922L42.1156 77.5203C43.6659 76.57 44.8358 75.1083 45.4234 73.3875L46.35 72.5062C47.9549 70.9739 49.1617 69.0731 49.8656 66.9688C50.3276 65.5844 50.563 64.1344 50.5625 62.675V61.5C50.5625 60.6891 50.4375 59.8891 50.2594 59.1C54.2781 62.8141 56.8125 68.1094 56.8125 74C56.815 78.6448 55.217 83.1486 52.2875 86.7531ZM57.7359 83.8531C58.5297 82.15 59.1344 80.3453 59.5016 78.4516C63.2471 78.2733 66.987 77.9925 70.7172 77.6094C66.8582 80.5493 62.4416 82.6736 57.7359 83.8531ZM74.7766 74.0125C70.5594 74.5766 65.5891 75.025 59.8719 75.2969C59.8953 74.8656 59.9375 74.4375 59.9375 74C59.9375 68.6766 58.1328 63.7766 55.1312 59.8375C57.9828 59.7625 60.7984 59.65 63.5297 59.4734C66.5246 61.7988 70.2083 63.0615 74 63.0625C77.2011 63.0609 80.3372 62.1588 83.05 60.4594C81.3397 65.5386 78.5126 70.1699 74.7766 74.0125ZM74 47.4375C71.4156 47.4375 69.3125 45.3344 69.3125 42.75C69.3125 40.1656 71.4156 38.0625 74 38.0625C76.5844 38.0625 78.6875 40.1656 78.6875 42.75C78.6875 45.3344 76.5844 47.4375 74 47.4375ZM75.6031 50.7313L74 52.7438L72.3969 50.7313C73.4539 50.5074 74.5461 50.5074 75.6031 50.7313ZM69.4516 52.05L74 57.7562L78.5484 52.05C79.4437 52.6967 80.1909 53.5267 80.7402 54.4847C81.2896 55.4428 81.6285 56.5069 81.7344 57.6063C79.5141 59.0766 76.8562 59.9375 74 59.9375C71.1438 59.9375 68.4859 59.0766 66.2656 57.6063C66.3715 56.5069 66.7104 55.4428 67.2598 54.4847C67.8091 53.5267 68.5563 52.6967 69.4516 52.05ZM94.3125 67.75C94.3125 69.1062 89.6906 71.4844 79.5922 73.2656C81.9605 70.2814 83.8783 66.9659 85.2844 63.425C92.6422 65.2719 94.3125 67.1516 94.3125 67.75ZM84.4719 55.2281C84.0476 53.8288 83.348 52.5283 82.4143 51.403C81.4805 50.2776 80.3314 49.3502 79.0344 48.675C80.7188 47.2406 81.8125 45.1312 81.8125 42.75C81.8125 38.4422 78.3078 34.9375 74 34.9375C69.6922 34.9375 66.1875 38.4422 66.1875 42.75C66.1875 45.1312 67.2812 47.2406 68.9672 48.675C67.6701 49.3502 66.521 50.2776 65.5873 51.403C64.6535 52.5283 63.954 53.8288 63.5297 55.2281C61.2182 52.6611 59.9386 49.3294 59.9375 45.875C59.9375 38.1219 66.2469 31.8125 74 31.8125C81.7531 31.8125 88.0625 38.1219 88.0625 45.875C88.0611 49.329 86.7822 52.6605 84.4719 55.2281Z" fill="#2C2B4B"/>
</svg>
