<svg xmlns="http://www.w3.org/2000/svg" version="1.1" xmlns:xlink="http://www.w3.org/1999/xlink" width="512" height="512" x="0" y="0" viewBox="0 0 64 64" style="enable-background:new 0 0 512 512" xml:space="preserve" class=""><g><path fill="#d18922" d="M44.974 11h-1a1.953 1.953 0 0 1-1.81-1.208c-.306-.735-.14-1.574.451-2.165l.689-.707-3.526-3.526-.727-.688-.707.707a1.954 1.954 0 0 1-2.136.424A1.966 1.966 0 0 1 35 2V1h-5l-1 .027v1c0 .794-.475 1.505-1.209 1.81-.732.304-1.573.139-2.164-.452l-.707-.69-3.526 3.526-.688.726.707.708c.563.563.729 1.401.424 2.137A1.965 1.965 0 0 1 20 11h-1v6h1.026a1.96 1.96 0 0 1 1.368 3.363l-.707.707 3.535 3.536.727.688.707-.707a1.955 1.955 0 0 1 2.136-.424A1.966 1.966 0 0 1 29 26v1h5l1-.027v-1c0-.794.475-1.505 1.209-1.81.732-.303 1.572-.139 2.164.452l.707.689 3.526-3.527.688-.726-.707-.707a1.954 1.954 0 0 1-.424-2.137A1.965 1.965 0 0 1 44 17h1v-5zM32 20c-3.31 0-6-2.69-6-6s2.69-6 6-6 6 2.69 6 6-2.69 6-6 6z" opacity="1" data-original="#f0bc5e"></path><path d="M37 55.08V46c0-1.103-.897-2-2-2V26.973L34 27h-1v17h-2V27h-2v17c-1.103 0-2 .897-2 2v9.08c-3.386.488-6 3.401-6 6.92v1h22v-1c0-3.519-2.614-6.432-6-6.92zM35 46v9h-6v-9zM23.101 61A5.009 5.009 0 0 1 28 57h8a5.008 5.008 0 0 1 4.899 4zM32 17c1.654 0 3-1.346 3-3s-1.346-3-3-3-3 1.346-3 3 1.346 3 3 3zm0-4a1.001 1.001 0 1 1-1 1c0-.551.448-1 1-1zM9 18c0-.352-.072-.686-.184-1H13v11.219l-3.242.811.484 1.94 8-2-.484-1.94-2.758.689V17h4v-2H5v2h1a1.001 1.001 0 0 1 0 2c-1.654 0-3-1.346-3-3s1.346-3 3-3h13v-2H6c-2.757 0-5 2.243-5 5s2.243 5 5 5c1.654 0 3-1.346 3-3zM58 11H44.974L45 12v1h13c1.654 0 3 1.346 3 3s-1.346 3-3 3a1.001 1.001 0 0 1 0-2h1v-2H45v2h4v5.219l-3.242.811.484 1.94 8-2-.484-1.94-2.758.689V17h4.184A2.966 2.966 0 0 0 55 18c0 1.654 1.346 3 3 3 2.757 0 5-2.243 5-5s-2.243-5-5-5z" fill="#2c2b4b" opacity="1" data-original="#000000" class=""></path><path d="M32 21c3.859 0 7-3.14 7-7s-3.141-7-7-7-7 3.14-7 7 3.141 7 7 7zm0-12c2.757 0 5 2.243 5 5s-2.243 5-5 5-5-2.243-5-5 2.243-5 5-5zM58.631 36.07l-6.124-11.227-5.152 1.288-5.958 9.931A3.003 3.003 0 0 0 39 39v2c0 6.065 4.935 11 11 11s11-4.935 11-11v-2a3.003 3.003 0 0 0-2.369-2.93zm-9.986-8.2 2.848-.712L56.316 36h-12.55zM59 41c0 4.963-4.037 9-9 9s-9-4.037-9-9v-2a1 1 0 0 1 1-1h16a1 1 0 0 1 1 1zM25 47v-2a3.003 3.003 0 0 0-2.369-2.93l-6.124-11.227-5.152 1.288-5.958 9.931A3.003 3.003 0 0 0 3 45v2c0 6.065 4.935 11 11 11s11-4.935 11-11zM12.645 33.87l2.848-.713L20.316 42H7.766zM14 56c-4.963 0-9-4.037-9-9v-2a1 1 0 0 1 1-1h16a1 1 0 0 1 1 1v2c0 4.963-4.037 9-9 9z" fill="#2c2b4b" opacity="1" data-original="#000000" class=""></path></g></svg>