<svg width="98" height="98" viewBox="0 0 98 98" fill="none" xmlns="http://www.w3.org/2000/svg">
<path d="M78.6875 52.8734V92.6219L52.2703 71.4891C52.5297 71.2703 52.7937 71.0578 53.0406 70.8219L68.2891 56.3L66.1344 54.0359L50.8859 68.5594C48.2594 71.0594 44.8156 72.4375 41.1875 72.4375C37.5594 72.4375 34.1156 71.0594 31.4891 68.5578L6.03125 44.3125H46.8063V41.1875H0.5625V97.4375H81.8125V52.8734H78.6875ZM49.5938 73.3516L75.7937 94.3125H6.58125L32.7828 73.35C35.3471 74.7993 38.2425 75.5611 41.1881 75.5613C44.1336 75.5616 47.0292 74.8004 49.5938 73.3516ZM30.1063 71.4875L3.6875 92.6234V46.3953L29.3344 70.8188C29.5828 71.0563 29.8469 71.2687 30.1063 71.4875Z" fill="#2C2B4B"/>
<path d="M72.4375 81.8125H75.5625V84.9375H72.4375V81.8125ZM72.4375 63.0625H75.5625V78.6875H72.4375V63.0625Z" fill="#2C2B4B"/>
<path d="M69.3125 56.8125C53.8047 56.8125 41.1875 44.1953 41.1875 28.6875C41.1875 13.1797 53.8047 0.5625 69.3125 0.5625C84.8203 0.5625 97.4375 13.1797 97.4375 28.6875C97.4375 44.1953 84.8203 56.8125 69.3125 56.8125Z" fill="#E59623"/>
<path d="M69.3203 9.93293H68.8031C66.4071 9.9265 64.0336 10.3952 61.8199 11.3119C59.6062 12.2286 57.5962 13.5751 55.9062 15.2736C54.2064 16.9633 52.8587 18.9736 51.9415 21.188C51.0242 23.4023 50.5555 25.7767 50.5625 28.1735V28.6892C50.556 31.1525 51.0382 33.5927 51.9812 35.8685C52.9242 38.1442 54.3093 40.2102 56.0562 41.947C57.7928 43.6931 59.8585 45.0774 62.1337 46.0199C64.4088 46.9624 66.8483 47.4442 69.3109 47.4376H72.4375V44.3126H69.3109C67.2588 44.3181 65.226 43.9166 63.3301 43.1313C61.4342 42.346 59.7128 41.1925 58.2656 39.7376C56.8098 38.2903 55.6555 36.5686 54.8696 34.6721C54.0838 32.7756 53.682 30.742 53.6875 28.6892V28.1735C53.6818 26.1875 54.0702 24.2201 54.8303 22.3852C55.5905 20.5504 56.7071 18.8847 58.1156 17.4845C59.5159 16.0767 61.1815 14.9605 63.016 14.2007C64.8505 13.4409 66.8175 13.0525 68.8031 13.0579H69.3203C77.9313 13.0611 84.9375 20.0689 84.9375 28.6798V34.1564C84.9375 36.3111 83.1859 38.0626 81.0312 38.0626C78.8766 38.0626 77.125 36.3111 77.125 34.1564V27.1251C77.125 22.8173 73.6203 19.3126 69.3125 19.3126C65.0047 19.3126 61.5 22.8173 61.5 27.1251V30.2501C61.5 34.5579 65.0047 38.0626 69.3125 38.0626C71.2328 38.0626 72.9719 37.3392 74.3344 36.1845C75.2109 39.0689 77.8641 41.1876 81.0312 41.1876C84.9078 41.1876 88.0625 38.0329 88.0625 34.1564V28.6798C88.0625 18.347 79.6547 9.93605 69.3203 9.93293ZM69.3125 34.9376C66.7281 34.9376 64.625 32.8345 64.625 30.2501V27.1251C64.625 24.5407 66.7281 22.4376 69.3125 22.4376C71.8969 22.4376 74 24.5407 74 27.1251V30.2501C74 32.8345 71.8969 34.9376 69.3125 34.9376ZM16.1875 47.4376H19.3125V50.5626H16.1875V47.4376ZM22.4375 47.4376H25.5625V50.5626H22.4375V47.4376ZM28.6875 47.4376H31.8125V50.5626H28.6875V47.4376Z" fill="#2C2B4B"/>
</svg>
