<svg width="101" height="100" viewBox="0 0 101 100" fill="none" xmlns="http://www.w3.org/2000/svg">
<path d="M53.625 71.875H73.9375V42.1875C73.9375 40.4641 72.5359 39.0625 70.8125 39.0625H11.4375C9.71406 39.0625 8.3125 40.4641 8.3125 42.1875V76.5625C8.3125 78.2859 9.71406 79.6875 11.4375 79.6875H53.625V71.875ZM88 89.0625C85.4156 89.0625 83.3125 86.9594 83.3125 84.375C83.3125 81.7906 85.4156 79.6875 88 79.6875C90.5844 79.6875 92.6875 81.7906 92.6875 84.375C92.6875 86.9594 90.5844 89.0625 88 89.0625ZM63 89.0625C60.4156 89.0625 58.3125 86.9594 58.3125 84.375C58.3125 81.7906 60.4156 79.6875 63 79.6875C65.5844 79.6875 67.6875 81.7906 67.6875 84.375C67.6875 86.9594 65.5844 89.0625 63 89.0625ZM75.5 89.0625C72.9156 89.0625 70.8125 86.9594 70.8125 84.375C70.8125 81.7906 72.9156 79.6875 75.5 79.6875C78.0844 79.6875 80.1875 81.7906 80.1875 84.375C80.1875 86.9594 78.0844 89.0625 75.5 89.0625ZM64.5625 9.375H92.6875V23.4375H64.5625V9.375Z" fill="#E59623"/>
<path d="M27.0625 45.3125H30.1875V48.4375H27.0625V45.3125ZM39.5625 57.8125H42.6875V60.9375H39.5625V57.8125ZM14.5625 70.3125H17.6875V73.4375H14.5625V70.3125ZM64.5625 7.8125H92.6875V10.9375H64.5625V7.8125ZM70.8125 14.0625H92.6875V17.1875H70.8125V14.0625ZM64.5625 14.0625H67.6875V17.1875H64.5625V14.0625ZM89.5625 20.3125H92.6875V23.4375H89.5625V20.3125ZM64.5625 20.3125H86.4375V23.4375H64.5625V20.3125Z" fill="#2C2B4B"/>
<path d="M91.125 29.6875C95.4328 29.6875 98.9375 26.1828 98.9375 21.875V9.375C98.9375 5.06719 95.4328 1.5625 91.125 1.5625H66.125C61.8172 1.5625 58.3125 5.06719 58.3125 9.375V20.3125H45.8125V17.1875C45.8125 15.4641 44.4109 14.0625 42.6875 14.0625H39.5625C37.8391 14.0625 36.4375 15.4641 36.4375 17.1875V20.3125H23.9375V17.1875C23.9375 15.4641 22.5359 14.0625 20.8125 14.0625H17.6875C15.9641 14.0625 14.5625 15.4641 14.5625 17.1875V20.3125H9.875C5.56719 20.3125 2.0625 23.8172 2.0625 28.125V78.125C2.0625 82.4328 5.56719 85.9375 9.875 85.9375H52.1547C52.9344 92.9578 58.8984 98.4375 66.125 98.4375H84.875C92.6297 98.4375 98.9375 92.1281 98.9375 84.375C98.9375 76.6219 92.6297 70.3125 84.875 70.3125H80.1875V29.6875H91.125ZM61.4375 9.375C61.4375 6.79063 63.5406 4.6875 66.125 4.6875H91.125C93.7094 4.6875 95.8125 6.79063 95.8125 9.375V21.875C95.8125 24.4594 93.7094 26.5625 91.125 26.5625H76.6469L67.6875 31.6828V26.5625H66.125C63.5406 26.5625 61.4375 24.4594 61.4375 21.875V9.375ZM39.5625 17.1875H42.6875L42.6891 26.5625H39.5625V17.1875ZM17.6875 17.1875H20.8125L20.8141 26.5625H17.6875V17.1875ZM95.8125 84.375C95.8125 90.4062 90.9047 95.3125 84.875 95.3125H66.125C60.0953 95.3125 55.1875 90.4062 55.1875 84.375V73.4375H84.875C90.9047 73.4375 95.8125 78.3438 95.8125 84.375ZM61.4375 70.3125V67.1875H73.9375V64.0625H61.4375V54.6875H73.9375V51.5625H61.4375V39.0625H58.3125V51.5625H48.9375V39.0625H45.8125V51.5625H36.4375V39.0625H33.3125V51.5625H23.9375V39.0625H20.8125V51.5625H8.3125V54.6875H20.8125V64.0625H8.3125V67.1875H20.8125V79.6875H23.9375V67.1875H33.3125V79.6875H36.4375V67.1875H45.8125V79.6875H48.9375V67.1875H58.3125V70.3125H52.0625V82.8125H9.875C7.29063 82.8125 5.1875 80.7094 5.1875 78.125V35.9375H61.4375V32.8125H5.1875V28.125C5.1875 25.5406 7.29063 23.4375 9.875 23.4375H14.5625V26.5625C14.5625 28.2859 15.9641 29.6875 17.6875 29.6875H20.8125C22.5359 29.6875 23.9375 28.2859 23.9375 26.5625V23.4375H36.4375V26.5625C36.4375 28.2859 37.8391 29.6875 39.5625 29.6875H42.6875C44.4109 29.6875 45.8125 28.2859 45.8125 26.5625V23.4375H58.4844C58.7913 24.9359 59.5305 26.3114 60.6107 27.3942C61.691 28.4769 63.0649 29.2193 64.5625 29.5297V37.0672L77.0625 29.925V70.3125H61.4375ZM36.4375 54.6875H45.8125V64.0625H36.4375V54.6875ZM33.3125 64.0625H23.9375V54.6875H33.3125V64.0625ZM48.9375 54.6875H58.3125V64.0625H48.9375V54.6875Z" fill="#2C2B4B"/>
<path d="M64.5625 45.3125H67.6875V48.4375H64.5625V45.3125Z" fill="#2C2B4B"/>
</svg>
