<svg xmlns="http://www.w3.org/2000/svg" version="1.1" xmlns:xlink="http://www.w3.org/1999/xlink" width="512" height="512" x="0" y="0" viewBox="0 0 58 62" style="enable-background:new 0 0 512 512" xml:space="preserve" class=""><g><path fill="#d18922" d="m20.977 29.406 3.3.761L25 30v-2.382a.998.998 0 0 0-.553-.894l-1.024-.512A8.001 8.001 0 0 1 19 19.056V14.5a3.5 3.5 0 0 1 3.5-3.5c.031 0 .06.008.091.009l.008-.008 1.73-2.163a2.237 2.237 0 0 1 3.325-.183L28 9l.345-.345a2.234 2.234 0 0 1 3.326.184l1.73 2.163.008.008c.031-.002.06-.01.091-.01a3.5 3.5 0 0 1 3.5 3.5l.001 4.555a8.001 8.001 0 0 1-4.422 7.156l-1.026.513a.998.998 0 0 0-.553.894V30l.724.167 3.3-.761A8.96 8.96 0 0 0 42 20.636V14c0-7.72-6.28-14-14-14S14 6.28 14 14v6.636a8.96 8.96 0 0 0 6.977 8.77z" opacity="1" data-original="#f0bc5e"></path><path d="m31.305 22.753-1.322-1.501c-1.095.964-2.867.965-3.962.002l-1.32 1.501a4.998 4.998 0 0 0 6.604-.002z" fill="#2c2b4b" opacity="1" data-original="#000000" class=""></path><path d="M43 50h-.111A6.973 6.973 0 0 0 45 45v-2.454a12.94 12.94 0 0 0-10.077-12.667L32 29.205v-1.586l1.025-.513a8.954 8.954 0 0 0 4.976-8.051L38 14.5c0-2.339-1.801-4.245-4.085-4.458l-1.463-1.828A3.22 3.22 0 0 0 29.926 7c-.703 0-1.372.223-1.926.635A3.212 3.212 0 0 0 26.074 7a3.22 3.22 0 0 0-2.526 1.214l-1.463 1.828C19.8 10.255 18 12.161 18 14.5v4.556a8.95 8.95 0 0 0 4.976 8.05l1.024.512v1.587l-2.923.674A12.94 12.94 0 0 0 11 42.546V45c0 1.958.81 3.728 2.111 5H13c-3.309 0-6 2.691-6 6s2.691 6 6 6h30c3.309 0 6-2.691 6-6s-2.691-6-6-6zm-20.937 4H21c-1.103 0-2-.897-2-2h18c0 1.103-.897 2-2 2h-1.063zM37 50H19v-8c0-1.103.897-2 2-2h14c1.103 0 2 .897 2 2zm6-7.454V45a5.01 5.01 0 0 1-4 4.899V44h2v-2h-2c0-2.206-1.794-4-4-4h-5.586l.076-.076a5.212 5.212 0 0 1 2.423-1.371 7.197 7.197 0 0 0 4.251-2.997l.61-.915A10.935 10.935 0 0 1 43 42.546zM36 14.5c0 1.378-1.121 2.5-2.5 2.5S31 15.878 31 14.5s1.121-2.5 2.5-2.5 2.5 1.122 2.5 2.5zm-9.053-5.138L28 10.413l1.053-1.052c.5-.499 1.395-.451 1.837.103l.757.946a4.499 4.499 0 0 0-2.37 2.59h-2.553a4.507 4.507 0 0 0-2.371-2.59l.757-.947c.441-.552 1.337-.602 1.837-.101zM22.5 12c1.379 0 2.5 1.122 2.5 2.5S23.879 17 22.5 17 20 15.878 20 14.5s1.121-2.5 2.5-2.5zM26 30.795v-3.18a1.993 1.993 0 0 0-1.105-1.786l-1.024-.512A6.958 6.958 0 0 1 20 19.056v-.818c.716.48 1.575.762 2.5.762 2.31 0 4.197-1.756 4.449-4h2.101c.252 2.244 2.139 4 4.449 4 .925 0 1.785-.282 2.501-.762v.817a6.964 6.964 0 0 1-3.87 6.262l-1.025.513A1.984 1.984 0 0 0 30 27.619v3.177l4.474 1.033c.126.029.247.069.371.102l-.345.516a5.21 5.21 0 0 1-3.073 2.166 7.222 7.222 0 0 0-3.351 1.897l-.076.076-.076-.076a7.205 7.205 0 0 0-3.351-1.897 5.196 5.196 0 0 1-3.073-2.166l-.344-.516c.124-.033.245-.073.371-.102zM13 45v-2.454c0-4.32 2.47-8.109 6.226-9.905l.61.915a7.201 7.201 0 0 0 4.251 2.997 5.212 5.212 0 0 1 2.423 1.371l.076.076H21c-2.206 0-4 1.794-4 4h-2v2h2v5.899A5.01 5.01 0 0 1 13 45zm10 15H13c-2.206 0-4-1.794-4-4s1.794-4 4-4h4c0 .759.224 1.461.593 2.067a9.208 9.208 0 0 0-4.227 1.488l-.92.613 1.109 1.664.92-.613A7.226 7.226 0 0 1 18.5 56h5.177A3.72 3.72 0 0 0 23 58.139zm9 0h-7v-1.861c0-.461.187-.912.513-1.238 1.012-1.011 2.749-1.191 3.993-.362l2.084 1.389 2.228.557A1.559 1.559 0 0 1 35 60zm11 0h-6a3.554 3.554 0 0 0-2.698-3.455l-1.892-.473-.108-.072H37.5c1.437 0 2.829.421 4.025 1.219l.92.613 1.109-1.664-.92-.613a9.2 9.2 0 0 0-4.227-1.488A3.957 3.957 0 0 0 39 52h4c2.206 0 4 1.794 4 4s-1.794 4-4 4z" fill="#2c2b4b" opacity="1" data-original="#000000" class=""></path><path d="M28 42c-1.654 0-3 1.346-3 3s1.346 3 3 3 3-1.346 3-3-1.346-3-3-3zm0 4a1.001 1.001 0 0 1 0-2 1.001 1.001 0 0 1 0 2zM52 15.999h2v2h-2zM44 15.999h2v2h-2zM48 15.999h2v2h-2zM12 3.999h2v2h-2zM8 3.999h2v2H8zM4 3.999h2v2H4z" fill="#2c2b4b" opacity="1" data-original="#000000" class=""></path><path d="M55 11.999H41.84c.094.655.16 1.319.16 2h13c.552 0 1 .449 1 1V19c0 .551-.448 1-1 1h-3.5l-2.899 3.866c-.173.231-.601.089-.601-.199V20h-6v.636c0 .464-.04.918-.108 1.364H46v1.667A2.336 2.336 0 0 0 48.333 26c.73 0 1.429-.349 1.867-.933L52.5 22H55c1.654 0 3-1.346 3-3v-4.001c0-1.655-1.346-3-3-3zM9.667 14.001A2.336 2.336 0 0 0 12 11.668v-1.667h2.59a13.98 13.98 0 0 1 .78-2H10v3.667c0 .289-.429.43-.601.2L6.5 8.001H3c-.552 0-1-.449-1-1V3c0-.551.448-1 1-1h12.031c.268 0 .52.104.708.294.189.19.293.442.292.709L16.016 6.8c.57-.946 1.24-1.824 2.01-2.608l.005-1.182c.003-.803-.308-1.559-.875-2.128S15.835 0 15.031 0H3C1.346 0 0 1.346 0 3v4.001c0 1.654 1.346 3 3 3h2.5l2.3 3.067a2.343 2.343 0 0 0 1.867.933z" fill="#2c2b4b" opacity="1" data-original="#000000" class=""></path></g></svg>