<svg width="100" height="100" viewBox="0 0 100 100" fill="none" xmlns="http://www.w3.org/2000/svg">
<path d="M33.5937 58.5939L44.8546 69.8549L67.989 46.7205C67.4406 46.5571 66.9441 46.2541 66.5479 45.8412C66.1518 45.4282 65.8697 44.9195 65.7292 44.3648C65.5887 43.8101 65.5947 43.2284 65.7465 42.6767C65.8983 42.125 66.1908 41.6221 66.5953 41.2174C65.9685 41.8132 65.1336 42.1406 64.2689 42.1297C63.4041 42.1187 62.5779 41.7703 61.9663 41.1588C61.3548 40.5473 61.0064 39.721 60.9955 38.8563C60.9845 37.9915 61.3119 37.1567 61.9078 36.5299C61.281 37.1257 60.4461 37.4531 59.5814 37.4422C58.7166 37.4312 57.8904 37.0828 57.2788 36.4713C56.6673 35.8598 56.3189 35.0335 56.308 34.1688C56.297 33.304 56.6244 32.4692 57.2203 31.8424C56.5935 32.4382 55.7586 32.7656 54.8939 32.7547C54.0291 32.7437 53.2029 32.3953 52.5913 31.7838C51.9798 31.1723 51.6314 30.346 51.6205 29.4813C51.6095 28.6165 51.9369 27.7817 52.5328 27.1549L53.9062 25.7814L39.5203 11.3955L12.9578 37.958L27.3437 52.3439L28.3921 51.2955C29.2212 50.4672 30.3452 50.0019 31.5171 50.0018H31.5187C32.3928 50.0007 33.2476 50.2591 33.9747 50.7442C34.7018 51.2293 35.2686 51.9194 35.6033 52.7269C35.9379 53.5344 36.0254 54.423 35.8546 55.2803C35.6837 56.1376 35.2623 56.9248 34.6437 57.5424L33.5937 58.5939Z" fill="#E59623"/>
<path d="M50.4719 41.4578L50.15 41.2969C47.925 40.1875 45.075 40.5391 43.1844 42.136C42.562 42.0203 41.9891 41.7188 41.5415 41.2711C41.0938 40.8234 40.7923 40.2506 40.6766 39.6282C41.6481 38.4752 42.183 37.0171 42.1875 35.5094C42.1821 34.4887 41.937 33.4836 41.4719 32.575C41.0411 31.7053 40.3752 30.9738 39.5497 30.4634C38.7242 29.953 37.7721 29.6842 36.8016 29.6875C35.9953 29.6875 35.1875 29.8782 34.4641 30.2407L34.1375 30.4047C33.2677 30.835 32.536 31.5005 32.0256 32.3258C31.5152 33.1512 31.2465 34.1031 31.25 35.0735V35.9375C31.25 44.5532 38.2594 51.5625 46.875 51.5625H47.8828C48.8162 51.5625 49.7294 51.2903 50.5106 50.7794C51.2917 50.2686 51.9071 49.5411 52.2813 48.686L52.7219 47.6766C52.9891 47.0672 53.125 46.4188 53.125 45.7516C53.128 44.8595 52.8811 43.9844 52.4122 43.2255C51.9432 42.4666 51.2711 41.8543 50.4719 41.4578ZM49.8594 46.4235L49.4188 47.4328C49.2882 47.7315 49.0733 47.9856 48.8005 48.164C48.5277 48.3425 48.2088 48.4375 47.8828 48.4375H46.875C39.9828 48.4375 34.375 42.8297 34.375 35.9375V35.0735C34.375 34.2735 34.8188 33.5563 35.536 33.1969L35.8625 33.0328C36.1516 32.8875 36.4766 32.811 36.8 32.811C37.6 32.811 38.3172 33.2547 38.7188 34.0563C38.9438 34.5063 39.0625 35.0094 39.0625 35.5094C39.0625 36.3625 38.7157 37.2 38.1125 37.8032L37.5 38.4157V39.0625C37.5 42.5094 40.3032 45.3125 43.75 45.3125H44.3969L45.0094 44.7C45.497 44.229 46.1169 43.9183 46.7861 43.8096C47.4552 43.701 48.1416 43.7996 48.7532 44.0922L49.0735 44.2532C49.4597 44.4431 49.7574 44.7752 49.9039 45.1799C50.0505 45.5846 50.0345 46.0303 49.8594 46.4235Z" fill="#2C2B4B"/>
<path d="M14.0625 31.25C14.9254 31.25 15.625 30.5504 15.625 29.6875C15.625 28.8246 14.9254 28.125 14.0625 28.125C13.1996 28.125 12.5 28.8246 12.5 29.6875C12.5 30.5504 13.1996 31.25 14.0625 31.25Z" fill="#2C2B4B"/>
<path d="M17.6406 23.8955L25.4531 16.083L27.6609 18.2939L19.85 26.1049L17.6406 23.8955ZM55.1328 64.5205L66.0687 53.5846L68.2781 55.7939L57.3422 66.7299L55.1328 64.5205Z" fill="#2C2B4B"/>
<path d="M74.8656 44.5313L75.1344 44.2626C75.5886 43.8108 75.9487 43.2733 76.1938 42.6814C76.4389 42.0895 76.5643 41.4548 76.5625 40.8142C76.56 39.5527 76.0683 38.3413 75.1908 37.435C74.3134 36.5287 73.1186 35.9981 71.8578 35.9548C71.8139 34.7256 71.306 33.5586 70.4362 32.6888C69.5665 31.8191 68.3995 31.3112 67.1703 31.2673C67.1264 30.0381 66.6185 28.8711 65.7488 28.0013C64.879 27.1316 63.712 26.6237 62.4828 26.5798C62.4391 25.3192 61.9084 24.1246 61.0022 23.2472C60.0959 22.3698 58.8848 21.878 57.6234 21.8751C56.3203 21.8751 55.0953 22.3829 54.175 23.3032L53.9062 23.572L37.6891 7.35478C35.9703 5.63447 33.6828 4.6876 31.25 4.6876C28.8172 4.6876 26.5297 5.63447 24.8109 7.35478L8.91719 23.2485C7.19687 24.9673 6.25 27.2548 6.25 29.6876C6.25 32.1204 7.19687 34.4079 8.91719 36.1267L25.1344 52.3438L22.4 55.0798C21.2392 56.2338 20.319 57.6066 19.6924 59.1188C19.0659 60.6309 18.7456 62.2524 18.75 63.8892C18.75 66.3563 19.4734 68.7454 20.8422 70.8001L28.125 81.7235V98.4376H59.375V81.8501C61.3906 79.6164 62.5043 76.7134 62.5 73.7048V70.9595L75.4562 58.0032C77.1781 56.2829 78.125 53.9954 78.125 51.5626C78.125 49.1298 77.1781 46.8423 75.4562 45.1235L74.8656 44.5313ZM73.4375 40.8142C73.4375 41.2829 73.2547 41.722 72.925 42.0532L70.1781 44.8001C69.8462 45.1122 69.4058 45.2829 68.9502 45.2759C68.4946 45.2689 68.0596 45.0848 67.7375 44.7626C67.4153 44.4404 67.2312 44.0055 67.2242 43.5499C67.2172 43.0943 67.3878 42.6539 67.7 42.322L70.4469 39.5751C70.6921 39.3307 71.0043 39.1644 71.3439 39.0971C71.6836 39.0299 72.0355 39.0647 72.3554 39.1973C72.6753 39.3298 72.9488 39.5541 73.1413 39.8418C73.3339 40.1296 73.437 40.4679 73.4375 40.8142ZM68.75 36.1267C68.75 36.5954 68.5672 37.0345 68.2375 37.3657L65.4906 40.1126C65.1587 40.4247 64.7183 40.5954 64.2627 40.5884C63.8071 40.5814 63.3721 40.3973 63.05 40.0751C62.7278 39.7529 62.5437 39.318 62.5367 38.8624C62.5297 38.4068 62.7003 37.9664 63.0125 37.6345L65.7594 34.8876C66.0046 34.6432 66.3168 34.4769 66.6564 34.4096C66.9961 34.3424 67.348 34.3772 67.6679 34.5098C67.9878 34.6423 68.2612 34.8666 68.4538 35.1543C68.6464 35.4421 68.7495 35.7804 68.75 36.1267ZM64.0625 31.4392C64.0625 31.9079 63.8797 32.347 63.55 32.6782L60.8031 35.4251C60.4712 35.7372 60.0308 35.9079 59.5752 35.9009C59.1196 35.8939 58.6846 35.7098 58.3625 35.3876C58.0403 35.0654 57.8562 34.6305 57.8492 34.1749C57.8422 33.7193 58.0128 33.2789 58.325 32.947L61.0719 30.2001C61.3171 29.9557 61.6293 29.7894 61.9689 29.7221C62.3086 29.6549 62.6605 29.6897 62.9804 29.8223C63.3003 29.9548 63.5737 30.1791 63.7663 30.4668C63.9589 30.7546 64.062 31.0929 64.0625 31.4392ZM57.6234 25.0001C57.9697 25.0006 58.308 25.1037 58.5958 25.2963C58.8835 25.4888 59.1078 25.7623 59.2403 26.0822C59.3729 26.4021 59.4077 26.754 59.3405 27.0937C59.2732 27.4333 59.1069 27.7455 58.8625 27.9907L56.1156 30.7376C55.7837 31.0497 55.3433 31.2204 54.8877 31.2134C54.4321 31.2064 53.9972 31.0223 53.675 30.7001C53.3528 30.3779 53.1687 29.943 53.1617 29.4874C53.1547 29.0318 53.3253 28.5914 53.6375 28.2595L56.3844 25.5126C56.7156 25.1829 57.1547 25.0001 57.6234 25.0001ZM21.875 63.8892C21.875 61.3954 22.8469 59.0517 24.6094 57.2892L29.4984 52.4001C30.042 51.9062 30.7549 51.6404 31.4891 51.6578C32.2234 51.6752 32.9228 51.9746 33.4424 52.4937C33.962 53.0129 34.2618 53.7121 34.2798 54.4463C34.2978 55.1806 34.0326 55.8936 33.5391 56.4376L27.4781 62.5001L30.9828 66.0048C31.5647 66.5838 32.0261 67.2725 32.3401 68.0309C32.6542 68.7894 32.8148 69.6026 32.8125 70.4235V73.4376H35.9375V70.4235C35.9408 69.1919 35.6999 67.9718 35.2287 66.8338C34.7574 65.6958 34.0653 64.6626 33.1922 63.7938L31.8969 62.5001L33.5937 60.8032L46.6859 73.8954C47.5294 74.7439 48.5329 75.4165 49.6382 75.8743C50.7435 76.3322 51.9286 76.5661 53.125 76.5626C55.4357 76.5659 57.6599 75.6842 59.3406 74.0985C59.2664 76.1588 58.4883 78.1315 57.1359 79.6876H30.5234L23.4422 69.0657C22.4189 67.5334 21.8735 65.7318 21.875 63.8892ZM56.25 82.8126V87.5407C54.9056 86.5067 53.2585 85.9433 51.5625 85.9376H35.9375C34.1719 85.9376 32.5594 86.5485 31.25 87.5407V82.8126H56.25ZM56.25 95.3126H31.25V93.7501C31.25 91.1657 33.3531 89.0626 35.9375 89.0626H51.5625C54.1469 89.0626 56.25 91.1657 56.25 93.7501V95.3126ZM73.2469 55.7938L57.3547 71.686C55.0953 73.9454 51.1547 73.9454 48.8953 71.686L35.7969 58.5876C36.8901 57.4757 37.5019 55.9782 37.5 54.4188C37.4979 52.8326 36.8667 51.312 35.7447 50.1906C34.6228 49.0693 33.1019 48.4388 31.5156 48.4376C29.957 48.4354 28.4601 49.0466 27.3484 50.1392L11.1266 33.9173C9.99687 32.7876 9.375 31.2845 9.375 29.6876C9.375 28.0907 9.99687 26.5876 11.1266 25.4579L27.0203 9.56416C29.2797 7.30478 33.2203 7.30478 35.4797 9.56416L51.6969 25.7813L51.4281 26.0501C50.9739 26.5019 50.6138 27.0394 50.3687 27.6313C50.1236 28.2232 49.9982 28.8579 50 29.4985C50.0025 30.76 50.4942 31.9714 51.3717 32.8777C52.2491 33.784 53.4439 34.3146 54.7047 34.3579C54.7486 35.5871 55.2565 36.7541 56.1262 37.6239C56.996 38.4936 58.163 39.0015 59.3922 39.0454C59.4361 40.2746 59.944 41.4416 60.8137 42.3114C61.6835 43.1811 62.8505 43.689 64.0797 43.7329C64.1234 44.9935 64.6541 46.1881 65.5603 47.0655C66.4666 47.9429 67.6777 48.4347 68.9391 48.4376C70.2422 48.4376 71.4672 47.9298 72.3875 47.0095L72.6562 46.7407L73.2484 47.3329C74.3781 48.4626 75 49.9657 75 51.5626C75 53.1595 74.3781 54.6626 73.2469 55.7938ZM64.5109 19.8595L66.7203 17.6501L77.6562 28.586L75.4469 30.7954L64.5109 19.8595ZM66.075 12.0501L68.2844 9.84072L85.4687 27.0251L83.2594 29.2345L66.075 12.0501ZM67.6375 4.23916L69.8469 2.02979L93.2797 25.4626L91.0703 27.672L67.6375 4.23916Z" fill="#2C2B4B"/>
</svg>
