<svg xmlns="http://www.w3.org/2000/svg" version="1.1" xmlns:xlink="http://www.w3.org/1999/xlink" width="512" height="512" x="0" y="0" viewBox="0 0 62 62.058" style="enable-background:new 0 0 512 512" xml:space="preserve" class=""><g><path fill="#d18922" d="M17.086 17.5A2.996 2.996 0 0 1 20 15.185h1v-1.949c0-1.244.245-2.474.719-3.62a6.974 6.974 0 0 0 8.038.213L31 9l1.243.829a6.978 6.978 0 0 0 8.038-.213 9.472 9.472 0 0 1 .719 3.62v1.949h1c1.42 0 2.603.99 2.914 2.315l1.025-1.025A6.986 6.986 0 0 0 48 11.5a6.993 6.993 0 0 0-2.019-4.933A5.006 5.006 0 0 0 41 2h-.602a7.769 7.769 0 0 0-5.227-2h-.56c-1.209 0-2.42.286-3.501.826L31 .882l-.111-.056A7.876 7.876 0 0 0 27.388 0h-.56a7.77 7.77 0 0 0-5.227 2H21a5.006 5.006 0 0 0-4.981 4.567A6.993 6.993 0 0 0 14 11.5c0 1.879.731 3.646 2.061 4.975z" opacity="1" data-original="#f0bc5e"></path><path d="m31.553 22.079.895-1.789-1.134-.567A9.516 9.516 0 0 0 32 16.185h-2a7.505 7.505 0 0 1-.789 3.342l-.553 1.105zM31 26.185a4.212 4.212 0 0 0 3.789-2.342l.105-.211-1.789-.893-.105.21c-.381.762-1.147 1.236-2 1.236s-1.619-.474-2-1.235l-.105-.211-1.789.893.105.212A4.215 4.215 0 0 0 31 26.185zM28.707 16.707l-1.414-1.414-.293.292c-.535.535-1.465.535-2 0l-.293-.293-1.414 1.414.293.294c.646.645 1.503 1 2.414 1s1.769-.355 2.414-1zM36 18c.911 0 1.769-.355 2.414-1l.293-.293-1.414-1.414-.293.292c-.535.535-1.465.535-2 0l-.293-.293-1.414 1.414.293.294c.645.645 1.503 1 2.414 1z" fill="#2c2b4b" opacity="1" data-original="#000000" class=""></path><path d="M41.286 31.991 36 31.306v-1.429a9.754 9.754 0 0 0 5.901-7.692H42c2.206 0 4-1.794 4-4s-1.794-4-4-4v-.949c0-1.131-.19-2.238-.545-3.304.098-.089.201-.173.295-.268l.957-.958-1.414-1.414-.957.958A5.94 5.94 0 0 1 36.111 10a5.955 5.955 0 0 1-3.313-1.003L31 7.798l-1.798 1.198A5.95 5.95 0 0 1 25.889 10a5.94 5.94 0 0 1-4.225-1.75l-.957-.958-1.414 1.414.957.958c.095.095.197.178.295.267A10.437 10.437 0 0 0 20 13.236v.949c-2.206 0-4 1.794-4 4s1.794 4 4 4h.099A9.753 9.753 0 0 0 26 29.877v1.429l-5.286.686C15.746 32.636 12 36.899 12 41.908v7.842a6.257 6.257 0 0 0 7 6.204v6.043l24 .061v-6.104a6.257 6.257 0 0 0 7-6.204v-7.842c0-5.009-3.746-9.272-8.714-9.917zM44 18.185c0 1.103-.897 2-2 2v-4c1.103 0 2 .897 2 2zm-26 0c0-1.103.897-2 2-2v4c-1.103 0-2-.897-2-2zm4 2.675v-7.625c0-.716.099-1.419.275-2.104a7.925 7.925 0 0 0 3.614.869 7.952 7.952 0 0 0 4.423-1.339l.688-.459.688.459A7.952 7.952 0 0 0 36.111 12a7.94 7.94 0 0 0 3.614-.868c.176.686.275 1.388.275 2.104v7.625a7.765 7.765 0 0 1-5.316 7.375l-.684.228v3.374C33.568 33.131 32.363 34 31 34s-2.568-.869-3-2.165v-3.371l-.684-.228A7.766 7.766 0 0 1 22 20.86zm-1.028 13.115 5.476-.71c.253.476.574.903.951 1.27a4.481 4.481 0 0 0-2.143 2.534l-.139.418L21 42.061v-1.647c0-.645.251-1.251.707-1.707l-1.414-1.415A4.385 4.385 0 0 0 19 40.414V42h-5v-.092c0-4.007 2.997-7.418 6.972-7.933zM14 49.75V44h5v.283l-1.405 1.561A6.2 6.2 0 0 0 16 50h2c0-1.042.384-2.043 1.081-2.818l7.802-8.668.271-.813A2.483 2.483 0 0 1 29.513 36 2.49 2.49 0 0 1 32 38.487a2.484 2.484 0 0 1-1.699 2.359l-.933.311-7.625 11.013A4.25 4.25 0 0 1 14 49.75zm27 10.303-20-.051v-4.649a6.237 6.237 0 0 0 2.388-2.045l7.244-10.465.301-.1c.023-.008.043-.02.066-.028.024.008.045.02.07.028l.3.1 7.244 10.465a6.237 6.237 0 0 0 2.388 2.045v4.7zM43.751 54c-1.395 0-2.7-.684-3.494-1.831L32.85 41.472A4.47 4.47 0 0 0 34 38.487c0-.859-.255-1.655-.675-2.337a2.48 2.48 0 0 1 1.521 1.551l.271.814 7.802 8.668A4.204 4.204 0 0 1 44 50h2a6.201 6.201 0 0 0-1.595-4.156L43 44.283V44h5v5.75A4.254 4.254 0 0 1 43.751 54zM48 42h-5v-1.586c0-1.18-.459-2.288-1.293-3.122l-1.414 1.415c.456.456.707 1.062.707 1.707v1.646l-4.117-4.575-.14-.418a4.476 4.476 0 0 0-2.141-2.533c.377-.367.699-.795.952-1.27l5.475.71C45.003 34.49 48 37.901 48 41.908zM56 4h2v4h-2zM58 8h4v2h-4zM56 10h2v4h-2zM52 8h4v2h-4zM4 8h2v4H4zM6 12h4v2H6zM4 14h2v4H4zM0 12h4v2H0zM10 22h2v2h-2zM8 24h2v2H8zM10 26h2v2h-2zM12 24h2v2h-2zM4 34h2v2H4zM2 36h2v2H2zM4 38h2v2H4zM6 36h2v2H6zM4 52h2v2H4zM2 54h2v2H2zM4 56h2v2H4zM6 54h2v2H6z" fill="#2c2b4b" opacity="1" data-original="#000000" class=""></path><path d="M46 23.936h2v2h-2zM44 25.936h2v2h-2zM46 27.936h2v2h-2zM48 25.936h2v2h-2zM58 34h2v2h-2zM56 36h2v2h-2zM58 38h2v2h-2zM60 36h2v2h-2zM54 53h2v2h-2zM52 55h2v2h-2zM54 57h2v2h-2zM56 55h2v2h-2z" fill="#2c2b4b" opacity="1" data-original="#000000" class=""></path></g></svg>