<svg width="100" height="100" viewBox="0 0 100 100" fill="none" xmlns="http://www.w3.org/2000/svg">
<g clip-path="url(#clip0_614_275)">
<path d="M17.7419 100C7.95968 100 0 92.0404 0 82.2581C0 72.4759 7.95968 64.5162 17.7419 64.5162C27.5242 64.5162 35.4839 72.4759 35.4839 82.2581C35.4839 92.0404 27.5242 100 17.7419 100ZM85.4839 22.5807C81.0371 22.5807 77.4193 18.9629 77.4193 14.5162C77.4193 10.0694 81.0371 6.45166 85.4839 6.45166C89.9306 6.45166 93.5484 10.0694 93.5484 14.5162C93.5484 18.9629 89.9306 22.5807 85.4839 22.5807Z" fill="#E59623"/>
<path d="M41.9355 59.6775H25.8065C23.1387 59.6775 20.9678 61.8485 20.9678 64.5162V64.8243C22.0839 65.0307 23.1613 65.3436 24.1936 65.7485V64.5162C24.1936 63.6275 24.9178 62.9033 25.8065 62.9033H41.9355C42.8242 62.9033 43.5484 63.6275 43.5484 64.5162V100H46.7742V64.5162C46.7742 61.8485 44.6033 59.6775 41.9355 59.6775Z" fill="#2C2B4B"/>
<path d="M41.9355 32.2581H0V35.4839H41.9355C42.8242 35.4839 43.5484 36.2081 43.5484 37.0968V48.3871C43.5484 49.2758 42.8242 50 41.9355 50H22.5806C16.3548 50 11.2903 55.0645 11.2903 61.2903V65.7484C12.3226 65.3436 13.4 65.0306 14.5161 64.8242V61.2903C14.5161 56.8435 18.1339 53.2258 22.5806 53.2258H41.9355C44.6032 53.2258 46.7742 51.0548 46.7742 48.3871V37.0968C46.7742 34.429 44.6032 32.2581 41.9355 32.2581ZM20.479 72.821C20.0194 71.6952 18.9452 70.9677 17.7419 70.9677C16.5387 70.9677 15.4645 71.6952 15.029 72.7629L8.2871 87.6161C8.13945 87.9759 8.06383 88.3611 8.06452 88.75V88.9758C8.06452 90.6081 9.37419 91.9355 10.9855 91.9355C11.6903 91.9355 12.371 91.6774 12.8161 91.2806L17.7419 87.5145L22.5806 91.2097C23.1129 91.6774 23.7935 91.9355 24.4984 91.9355C26.1081 91.9355 27.4194 90.6081 27.4194 88.9774V88.7516C27.4194 88.3597 27.3452 87.979 27.1726 87.5629L20.479 72.821ZM11.2484 88.8952L11.2613 88.8645C11.2807 88.899 11.2907 88.9379 11.2903 88.9774L11.2484 88.8952ZM19.3548 84.6871V80.6452H16.129V84.6887L11.5774 88.1726L17.7419 74.5903L23.9387 88.1919L19.3548 84.6871ZM43.5484 20.9677C43.5484 21.8565 42.8242 22.5806 41.9355 22.5806H0V25.8065H41.9355C44.6032 25.8065 46.7742 23.6355 46.7742 20.9677V0H43.5484V20.9677ZM56.4516 79.0323V64.5161C56.4516 63.6274 57.1758 62.9032 58.0645 62.9032H80.6452C86.871 62.9032 91.9355 57.8387 91.9355 51.6129V47.3323C95.8161 45.9565 98.3871 43.3645 98.3871 40.3226C98.3871 37.2565 95.8 34.5823 91.6564 33.2113L94.5935 25.8016C96.2809 24.4442 97.6425 22.7258 98.5781 20.7727C99.5138 18.8197 99.9996 16.6817 100 14.5161C100 6.5129 93.4871 0 85.4839 0C77.4806 0 70.9677 6.5129 70.9677 14.5161C70.9686 16.704 71.4651 18.8633 72.4199 20.8318C73.3747 22.8004 74.763 24.527 76.4806 25.8823L79.3419 33.2032C75.1823 34.571 72.5806 37.25 72.5806 40.3226C72.5806 43.3645 75.1516 45.9565 79.0323 47.3323V48.3871C79.0323 49.2758 78.3081 50 77.4194 50H58.0645C57.1758 50 56.4516 49.2758 56.4516 48.3871V0H53.2258V48.3871C53.2258 51.0548 55.3968 53.2258 58.0645 53.2258H77.4194C80.0871 53.2258 82.2581 51.0548 82.2581 48.3871V48.1323C83.2871 48.2935 84.3645 48.3871 85.4839 48.3871C86.6032 48.3871 87.6806 48.2935 88.7097 48.1323V51.6129C88.7097 56.0597 85.0919 59.6774 80.6452 59.6774H58.0645C55.3968 59.6774 53.2258 61.8484 53.2258 64.5161V79.0323C53.2258 81.7 55.3968 83.871 58.0645 83.871H100V80.6452H58.0645C57.1758 80.6452 56.4516 79.921 56.4516 79.0323ZM74.1936 14.5161C74.1936 8.29032 79.2581 3.22581 85.4839 3.22581C91.7097 3.22581 96.7742 8.29032 96.7742 14.5161C96.7742 20.7419 91.7097 25.8065 85.4839 25.8065C79.2581 25.8065 74.1936 20.7419 74.1936 14.5161ZM85.4839 29.0323C87.073 29.0299 88.6508 28.7645 90.1532 28.2468L86.1984 38.2258C85.9629 38.8145 85 38.8032 84.7726 38.2371L80.8774 28.271C82.3614 28.7731 83.9172 29.0303 85.4839 29.0323ZM75.8064 40.3226C75.8064 38.7048 77.6887 37.1032 80.5177 36.2097L81.7742 39.4242C82.3855 40.95 83.8403 41.9355 85.4839 41.9355C87.1274 41.9355 88.5823 40.95 89.1952 39.4194L90.4645 36.2161C93.2855 37.1097 95.1613 38.7081 95.1613 40.3226C95.1613 42.6113 91.1871 45.1613 85.4839 45.1613C79.7806 45.1613 75.8064 42.6113 75.8064 40.3226ZM53.2258 95.1613V100H56.4516V95.1613C56.4516 94.2726 57.1758 93.5484 58.0645 93.5484H100V90.3226H58.0645C55.3968 90.3226 53.2258 92.4935 53.2258 95.1613Z" fill="#2C2B4B"/>
</g>
<defs>
<clipPath id="clip0_614_275">
<rect width="100" height="100" fill="white"/>
</clipPath>
</defs>
</svg>
