<svg xmlns="http://www.w3.org/2000/svg" version="1.1" xmlns:xlink="http://www.w3.org/1999/xlink" width="512" height="512" x="0" y="0" viewBox="0 0 64 64" style="enable-background:new 0 0 512 512" xml:space="preserve" class=""><g><path d="M5 56h2v2H5zM5 52h2v2H5zM5 48h2v2H5zM57 44h2v2h-2zM57 48h2v2h-2zM57 52h2v2h-2z" fill="#2c2b4b" opacity="1" data-original="#000000" class=""></path><path d="m49.029 36.962-8.068 2.018.485 1.939L48 39.281v17.927l-16 3.764-16-3.765V39.281l6.551 1.637.485-1.939-8.063-2.017L1 41.262v22.092l14.036-4.318L32 63.027l16.966-3.992L63 63.354V41.262zM3 42.738l11-3.384v17.908L3 60.646zm58 17.908-11-3.384V39.354l11 3.384z" fill="#2c2b4b" opacity="1" data-original="#000000" class=""></path><path d="M32 55c-6.787 0-14-2.103-14-6 0-2.481 3.056-4.53 8.175-5.482l.365 1.967C22.247 46.282 20 47.857 20 49c0 1.67 4.565 4 12 4s12-2.33 12-4c0-1.143-2.247-2.718-6.541-3.516l.365-1.967C42.944 44.47 46 46.519 46 49c0 3.897-7.213 6-14 6z" fill="#2c2b4b" opacity="1" data-original="#000000" class=""></path><path fill="#e59623" d="M32 1C20.972 1 12 9.972 12 21v.273c0 4.565 1.582 9.035 4.455 12.584l11.509 14.217C28.955 49.298 30.426 50 32 50s3.045-.702 4.036-1.926l11.509-14.217A20.06 20.06 0 0 0 52 21.273V21C52 9.972 43.028 1 32 1zm0 34c-7.732 0-14-6.268-14-14S24.268 7 32 7s14 6.268 14 14-6.268 14-14 14z" opacity="1" data-original="#f0bc5e" class=""></path><path d="M32 36c-8.271 0-15-6.729-15-15S23.729 6 32 6s15 6.729 15 15-6.729 15-15 15zm0-28c-7.168 0-13 5.832-13 13s5.832 13 13 13 13-5.832 13-13S39.168 8 32 8z" fill="#2c2b4b" opacity="1" data-original="#000000" class=""></path><path d="M24 26c-1.654 0-3-1.346-3-3h2a1.001 1.001 0 1 0 1-1c-1.654 0-3-1.346-3-3s1.346-3 3-3 3 1.346 3 3h-2a1.001 1.001 0 0 0-2 0c0 .552.449 1 1 1 1.654 0 3 1.346 3 3s-1.346 3-3 3zM40 26c-1.654 0-3-1.346-3-3h2a1.001 1.001 0 1 0 1-1c-1.654 0-3-1.346-3-3s1.346-3 3-3 3 1.346 3 3h-2a1.001 1.001 0 0 0-2 0c0 .552.449 1 1 1 1.654 0 3 1.346 3 3s-1.346 3-3 3zM32 26c-1.654 0-3-1.346-3-3v-4c0-1.654 1.346-3 3-3s3 1.346 3 3v4c0 1.654-1.346 3-3 3zm0-8c-.551 0-1 .448-1 1v4a1.001 1.001 0 0 0 2 0v-4c0-.552-.449-1-1-1z" fill="#2c2b4b" opacity="1" data-original="#000000" class=""></path></g></svg>