<svg xmlns="http://www.w3.org/2000/svg" version="1.1" xmlns:xlink="http://www.w3.org/1999/xlink" width="512" height="512" x="0" y="0" viewBox="0 0 64 64" style="enable-background:new 0 0 512 512" xml:space="preserve" class=""><g><circle cx="58" cy="15" r="3" fill="#d18922" opacity="1" data-original="#f0bc5e"></circle><circle cx="49" cy="4" r="3" fill="#d18922" opacity="1" data-original="#f0bc5e"></circle><circle cx="16" cy="10" r="3" fill="#d18922" opacity="1" data-original="#f0bc5e"></circle><circle cx="8" cy="4" r="3" fill="#d18922" opacity="1" data-original="#f0bc5e"></circle><circle cx="6" cy="19" r="3" fill="#d18922" opacity="1" data-original="#f0bc5e"></circle><path fill="#d18922" d="M26 31c-2.757 0-5-2.243-5-5s2.243-5 5-5 5 2.243 5 5-2.243 5-5 5zM33 62H19V41h14z" opacity="1" data-original="#f0bc5e"></path><path d="M25 21v4h-4v2h4v4h2v-4h4v-2h-4v-4z" fill="#2c2b4b" opacity="1" data-original="#000000" class=""></path><path d="M61.809 53.174c.116-.378.191-.77.191-1.174a3.98 3.98 0 0 0-1-2.639V32.818A2.971 2.971 0 0 0 63 30c0-.801-.312-1.555-.879-2.121l-22-22c-1.133-1.134-3.109-1.134-4.242 0L30 11.758l-1.879-1.879c-1.133-1.134-3.109-1.134-4.242 0l-22 22C1.312 32.445 1 33.199 1 34s.312 1.555.879 2.121c1.133 1.134 3.109 1.134 4.242 0L7 35.242V53c-1.103 0-2 .897-2 2v6H1v2h62v-8c0-.815-.491-1.514-1.191-1.826zM61 57h-4v-2h4zM9 35h4v2H9zm41.121-3.121L49.242 31h7.516l1.121 1.121c.321.321.706.55 1.121.697V48.14c-.173-.045-.347-.091-.528-.113A3.963 3.963 0 0 0 57 46.538V39H47v8c-.732 0-1.409.212-2 .556V35.242l.879.879c.566.567 1.32.879 2.121.879s1.555-.312 2.121-.879c.567-.566.879-1.32.879-2.121s-.312-1.555-.879-2.121zM34.242 16 38 12.242 54.758 29h-7.516zM59.73 53H56c0-1.795-1.197-3.3-2.828-3.805A2.001 2.001 0 0 1 55 48c.848 0 1.601.536 1.874 1.333l.293.803L58 50c1.103 0 2 .897 2 2 0 .355-.096.698-.27 1zM51 57v-2h4v2zm-8-22v2h-4v-2zm10 11.556V45h2v1c-.732 0-1.409.212-2 .556zM50 53c0-1.103.897-2 2-2s2 .897 2 2zm5-10h-2v-2h2zm-4 0h-2v-2h2zm-2 2h2v4.142a3.77 3.77 0 0 0-.399.124A4.03 4.03 0 0 0 49 47.553zm-.071 5.469A3.957 3.957 0 0 0 48 53h-3v-2c0-1.103.897-2 2-2 .91 0 1.694.62 1.929 1.469zM9.242 33 26 16.242 42.758 33zM15 35h22v2H15zm28 4v14h-2V39zm6 16v2h-2v-2zm-2 4h4v2h-4zm6 0h4v2h-4zM37.293 7.293a1.014 1.014 0 0 1 1.414 0l22 22c.191.192.293.436.293.707s-.102.515-.293.707a1.014 1.014 0 0 1-1.414 0L38 9.414l-5.172 5.172-1.414-1.414zM4.707 34.707a1.014 1.014 0 0 1-1.414 0C3.102 34.515 3 34.271 3 34s.102-.515.293-.707l22-22a1.014 1.014 0 0 1 1.414 0l22 22c.191.192.293.436.293.707s-.102.515-.293.707a1.014 1.014 0 0 1-1.414 0L26 13.414zM9 39h2v14H9zM7 55h6v6H7zm30 0v6H15v-6c0-1.103-.897-2-2-2V39h26v14c-1.103 0-2 .897-2 2zm2 0h6v6h-6zm20 6v-2h2v2z" fill="#2c2b4b" opacity="1" data-original="#000000" class=""></path><path d="M23 45h6v2h-6zM23 53h2v2h-2zM35 45h2v2h-2zM48 1h2v2h-2zM48 5h2v2h-2zM50 3h2v2h-2zM46 3h2v2h-2zM57 12h2v2h-2zM57 16h2v2h-2zM59 14h2v2h-2zM55 14h2v2h-2zM15 7h2v2h-2zM15 11h2v2h-2zM17 9h2v2h-2zM13 9h2v2h-2zM7 1h2v2H7zM7 5h2v2H7zM9 3h2v2H9zM5 3h2v2H5zM5 16h2v2H5zM5 20h2v2H5zM7 18h2v2H7zM3 18h2v2H3z" fill="#2c2b4b" opacity="1" data-original="#000000" class=""></path></g></svg>