<svg xmlns="http://www.w3.org/2000/svg" version="1.1" xmlns:xlink="http://www.w3.org/1999/xlink" width="512" height="512" x="0" y="0" viewBox="0 0 64 64" style="enable-background:new 0 0 512 512" xml:space="preserve" class=""><g><path fill="#d18922" d="M56.313 9a23.743 23.743 0 0 1-16.899-7C38.125.711 35.875.711 34.586 2a23.743 23.743 0 0 1-16.899 7H11v12.215c0 5.036.796 10.008 2.357 14.784H18l.534-.356A42.42 42.42 0 0 1 16 21.215V14h1.687C24.888 14 31.688 11.383 37 6.6c5.312 4.784 12.112 7.4 19.313 7.4H58v7.215c0 15.045-8.042 29.105-21 36.737a42.317 42.317 0 0 1-7.847-5.953h-5.736c-.344 0-.685-.039-1.022-.098l.342.596.116.162a47.572 47.572 0 0 0 11.779 9.701 4.707 4.707 0 0 0 4.736-.001C53.944 53.856 63 38.091 63 21.215V9z" opacity="1" data-original="#f0bc5e"></path><path d="M56.313 13a27.816 27.816 0 0 1-18.645-7.144L37 5.254l-.669.603A27.816 27.816 0 0 1 17.687 13H15v8.215c0 4.691.767 9.321 2.261 13.784H1v16h16.764l2.522 1.261a7.037 7.037 0 0 0 3.13.739h5.352a43.37 43.37 0 0 0 7.724 5.814l.508.299.508-.299C50.765 51.005 59 36.599 59 21.215V13zM17 48.999h-2V47h-2v1.999H3v-12h10V45h2v-8.001h2zm11.78-5c-.48.532-.78 1.229-.78 2s.301 1.468.78 2a2.976 2.976 0 0 0-.78 2c0 .352.072.686.184 1h-4.768a5.024 5.024 0 0 1-2.235-.528L19 49.381V36.534l1.886-1.257c.37-.246.771-.442 1.193-.583l1.135-.379A6.992 6.992 0 0 0 28 27.675V26a1 1 0 0 1 1-1h.36a2.643 2.643 0 0 1 2.589 3.157l-1.377 6.886A2.994 2.994 0 0 0 28 37.999c0 .771.301 1.468.78 2-.48.532-.78 1.229-.78 2s.301 1.468.78 2zm8.22-1h-6a1 1 0 0 1 0-2h6a1 1 0 0 1 0 2zm1 3a1 1 0 0 1-1 1h-6a1 1 0 0 1 0-2h6a1 1 0 0 1 1 1zm-1-7h-6a1 1 0 0 1 0-2h6a1 1 0 0 1 0 2zM36 56.14a41.435 41.435 0 0 1-4.237-3.141H36zm1-5.141h-6a1 1 0 0 1 0-2h6a1 1 0 0 1 0 2zm20-29.784c0 14.081-7.244 27.287-19 34.918v-3.318a2.996 2.996 0 0 0 2-2.816 2.98 2.98 0 0 0-.78-2c.48-.532.78-1.229.78-2s-.301-1.468-.78-2c.48-.532.78-1.229.78-2s-.301-1.468-.78-2c.48-.532.78-1.229.78-2a2.996 2.996 0 0 0-2-2.816V19h-2v15.999h-3.38l1.29-6.451A4.644 4.644 0 0 0 29.36 23H29c-1.654 0-3 1.346-3 3v1.675a4.993 4.993 0 0 1-3.419 4.743l-1.135.379a7.047 7.047 0 0 0-1.67.816l-.713.475A41.332 41.332 0 0 1 17 21.215V15h.687c6.67 0 13.095-2.21 18.313-6.262V17h2V8.738A29.818 29.818 0 0 0 56.313 15H57z" fill="#2c2b4b" opacity="1" data-original="#000000" class=""></path><path d="M53 19h2v2h-2zM46.419 42.437l1.652 1.127a39.694 39.694 0 0 0 6.886-20.517l-1.998-.094a37.686 37.686 0 0 1-6.54 19.484z" fill="#2c2b4b" opacity="1" data-original="#000000" class=""></path></g></svg>