<svg xmlns="http://www.w3.org/2000/svg" version="1.1" xmlns:xlink="http://www.w3.org/1999/xlink" width="512" height="512" x="0" y="0" viewBox="0 0 496 496" style="enable-background:new 0 0 512 512" xml:space="preserve" class=""><g><g fill="#f0bc5e"><path d="M322.398 328.543c-18.878 19.36-45.277 31.36-74.398 31.36-24.48 0-47.04-8.481-64.8-22.72l1.6-2.562c9.52-14.16 25.438-22.719 42.56-22.719 7.519 0 14.242-4.8 16.64-12 2.398-7.199 9.121-12 16.64-12h1.84c9.68 0 17.52 7.84 17.52 17.52 0 8 6.48 14.48 14.48 14.48 10.32 0 19.918 3.2 27.918 8.641zM352 255.902c0 11.121-1.762 21.918-5.04 32h-8c-14.882 0-26.96-12.082-26.96-26.96 0-12.399-8.398-23.122-20.398-26.16l-6.16-1.52c-17.122-4.239-30.243-17.2-35.282-33.36 33.762-.398 58.559-9.441 72.559-16.32C340.879 202.301 352 227.82 352 255.902zM224 253.262c0 14.718-11.922 26.64-26.64 26.64-8.4 0-16.32-3.922-21.36-10.64-7.84-10.48-19.121-17.52-31.68-20.16h-.082a102.332 102.332 0 0 1 7.762-33.2h13.36c17.28 0 34.16 5.602 48 16 6.718 5.04 10.64 12.961 10.64 21.36zM376 263.902h88v96h-88zM32 183.902h88v160H32zm0 0" fill="#d18922" opacity="1" data-original="#f0bc5e"></path></g><path d="M456 111.902h-48v-16c0-13.23-10.77-24-24-24h-9.727c-1.8-4.504-4.921-8.441-9.25-10.914L266.91 4.926c-11.496-6.567-26.336-6.567-37.832 0l-98.101 56.062A21.828 21.828 0 0 0 120 79.902c0 7.801 4.207 15.047 10.977 18.91L152 110.829v1.074H40c-22.055 0-40 17.946-40 40v256c0 22.055 17.945 40 40 40h104v32h-32v16h272v-16h-32v-32h104c22.055 0 40-17.945 40-40v-256c0-22.054-17.945-40-40-40zm-57.969 48h3.93l14 49.008c-.512 8.352-7.473 14.992-15.961 14.992s-15.45-6.64-15.969-14.992zM136 79.902c0-2.074 1.121-4 2.91-5.023l98.113-56.067c3.336-1.902 7.137-2.91 10.977-2.91s7.64 1.008 10.977 2.91l92.902 53.09H248v16h103.879l-92.902 53.086c-6.672 3.817-15.282 3.817-21.954 0L138.91 84.926a5.809 5.809 0 0 1-2.91-5.024zm112 128c32.297 0 56.938-7.609 72.695-14.535C335.703 210.773 344 232.734 344 255.902c0 52.938-43.063 96-96 96s-96-43.062-96-96c0-23.168 8.297-45.129 23.305-62.535 15.757 6.926 40.398 14.535 72.695 14.535zm80-36.32c-9.137 5.574-37.336 20.32-80 20.32-42.68 0-70.887-14.754-80-20.312v-51.617l61.09 34.906c5.742 3.285 12.285 5.023 18.91 5.023s13.168-1.738 18.91-5.023L328 119.973zm-288-43.68h112v52l3.2 2.399c.304.226 2.198 1.601 5.433 3.547C144.687 205.672 136 230.176 136 255.902c0 61.758 50.238 112 112 112s112-50.242 112-112c0-25.726-8.688-50.23-24.633-70.054 3.235-1.946 5.13-3.32 5.434-3.547l3.199-2.399v-69.074l21.023-12.016c4.336-2.468 7.45-6.406 9.25-10.91H384c4.406 0 8 3.59 8 8v48h-6.031l-17.656 61.801-.313 2.2c0 17.648 14.352 32 32 32s32-14.352 32-32l-17.969-64H408v-16h48c13.23 0 24 10.769 24 24v232H138.426l-24-16H16v-216c0-13.231 10.77-24 24-24zm416 304H336v48H160v-32h160v-16H40c-13.23 0-24-10.77-24-24v-24h93.574l24 16H480v8c0 13.23-10.77 24-24 24zm0 0" fill="#2c2b4b" opacity="1" data-original="#000000" class=""></path><path d="M96 399.902h16v16H96zM64 399.902h16v16H64zM32 399.902h16v16H32zM32 335.902h88v16H32zM32 303.902h88v16H32zM32 271.902h88v16H32zM32 239.902h88v16H32zM32 207.902h88v16H32zM32 175.902h88v16H32zM376 351.902h88v16h-88zM376 319.902h88v16h-88zM376 287.902h88v16h-88zM376 255.902h88v16h-88zm0 0" fill="#2c2b4b" opacity="1" data-original="#000000" class=""></path></g></svg>